<svg xmlns="http://www.w3.org/2000/svg" width="145" height="36" fill="none" xmlns:v="https://vecta.io/nano"><path d="M68.082 7.182V29h-3.516l-10.28-14.861h-.181V29h-3.952V7.182h3.537l10.27 14.872h.192V7.182h3.931zM79.356 29.32c-1.598 0-2.983-.352-4.155-1.055s-2.081-1.687-2.727-2.951c-.639-1.264-.959-2.742-.959-4.432s.32-3.171.959-4.443c.646-1.271 1.555-2.258 2.727-2.962s2.557-1.055 4.155-1.055 2.983.352 4.155 1.055 2.077 1.69 2.717 2.962c.646 1.271.97 2.752.97 4.443s-.323 3.168-.97 4.432a7.09 7.09 0 0 1-2.717 2.951c-1.172.703-2.557 1.055-4.155 1.055zm.021-3.09c.866 0 1.591-.238 2.173-.714.582-.483 1.016-1.129 1.3-1.939.291-.81.437-1.712.437-2.706 0-1.001-.146-1.907-.437-2.717-.284-.817-.717-1.467-1.3-1.95s-1.307-.725-2.173-.725c-.888 0-1.626.242-2.216.725-.582.483-1.019 1.133-1.31 1.95-.284.81-.426 1.715-.426 2.717 0 .994.142 1.896.426 2.706.291.81.728 1.456 1.31 1.939.59.476 1.328.714 2.216.714zm19.264-13.594v2.983h-9.407v-2.983h9.407zm-7.085-3.92h3.856v15.362c0 .518.078.916.234 1.193a1.26 1.26 0 0 0 .639.554c.263.099.554.149.874.149a3.81 3.81 0 0 0 .66-.053l.469-.096.65 3.015a8.63 8.63 0 0 1-.884.234c-.376.085-.838.135-1.385.149-.966.028-1.836-.117-2.61-.437a4.06 4.06 0 0 1-1.843-1.513c-.448-.682-.668-1.534-.66-2.557v-16zM101.866 29V12.636h3.857V29h-3.857zm1.939-18.686c-.611 0-1.136-.202-1.576-.607-.441-.412-.661-.906-.661-1.481 0-.582.22-1.076.661-1.481.44-.412.965-.618 1.576-.618.618 0 1.144.206 1.577.618.44.405.66.898.66 1.481 0 .575-.22 1.069-.66 1.481-.433.405-.959.607-1.577.607zm13.021 19.006c-1.598 0-2.983-.352-4.154-1.055s-2.081-1.687-2.728-2.951c-.639-1.264-.959-2.742-.959-4.432s.32-3.171.959-4.443c.647-1.271 1.556-2.258 2.728-2.962s2.556-1.055 4.154-1.055 2.983.352 4.155 1.055 2.078 1.69 2.717 2.962c.646 1.271.969 2.752.969 4.443s-.323 3.168-.969 4.432a7.09 7.09 0 0 1-2.717 2.951c-1.172.703-2.557 1.055-4.155 1.055zm.022-3.09c.866 0 1.591-.238 2.173-.714.582-.483 1.016-1.129 1.3-1.939.291-.81.436-1.712.436-2.706 0-1.001-.145-1.907-.436-2.717-.284-.817-.718-1.467-1.3-1.95s-1.307-.725-2.173-.725c-.888 0-1.627.242-2.216.725-.583.483-1.019 1.133-1.311 1.95-.284.81-.426 1.715-.426 2.717 0 .994.142 1.896.426 2.706.292.81.728 1.456 1.311 1.939.589.476 1.328.714 2.216.714zm14.949-6.818V29h-3.856V12.636h3.686v2.781h.191a4.68 4.68 0 0 1 1.801-2.184c.831-.54 1.857-.81 3.079-.81 1.129 0 2.113.242 2.951.724.845.483 1.498 1.183 1.96 2.099.469.916.699 2.028.692 3.335V29h-3.856v-9.822c0-1.094-.284-1.95-.852-2.568-.562-.618-1.339-.927-2.334-.927-.674 0-1.274.149-1.8.448-.518.291-.927.714-1.225 1.268-.291.554-.437 1.225-.437 2.014zM28.388 14.455V29h-2.344l-6.854-9.908h-.121V29h-2.635V14.455h2.358l6.847 9.915h.128v-9.915h2.621z" fill="#407bff"/><path d="M9 9h28v26H9zM2.661 2l5.714 5h26.963l-5.714-5H2.661z" stroke="#407bff" stroke-width="2"/><path d="M8 8L0 1v28l8 7V8z" fill="#407bff"/></svg>