<svg xmlns="http://www.w3.org/2000/svg" width="154" height="36" fill="#407bff" xmlns:v="https://vecta.io/nano"><path fill-rule="evenodd" d="M17.071 4.417C18.946 5.325 20 6.555 20 7.839H10 0c0-1.283 1.054-2.514 2.929-3.421S7.348 3 10 3s5.196.51 7.071 1.417zM2.929 31.583C1.054 30.675 0 29.445 0 28.161h10 10c0 1.283-1.054 2.514-2.929 3.421S12.652 33 10 33s-5.196-.51-7.071-1.417zM23 20.419v3.871h-6v-3.871h6zM6 11.71H0v3.871h6V11.71zm5 0h12v3.871H11V11.71zm1 8.71H0v3.871h12v-3.871z"/><path d="M41.054 29.288c-1.285 0-2.436-.33-3.452-.991s-1.818-1.619-2.408-2.876-.884-2.784-.884-4.581c0-1.818.298-3.352.895-4.602.604-1.257 1.417-2.205 2.44-2.844 1.023-.646 2.163-.969 3.42-.969.959 0 1.747.163 2.365.49.618.32 1.108.707 1.47 1.161a7.1 7.1 0 0 1 .842 1.268h.16v-8.16h3.867V29h-3.793v-2.578h-.234c-.199.398-.486.82-.863 1.268-.377.44-.874.817-1.492 1.129s-1.396.469-2.333.469zm1.076-3.164c.817 0 1.513-.22 2.088-.66.575-.448 1.012-1.069 1.31-1.864s.448-1.722.448-2.78-.149-1.978-.448-2.759c-.291-.781-.724-1.388-1.3-1.822-.568-.433-1.268-.65-2.099-.65-.859 0-1.577.224-2.152.671s-1.009 1.065-1.3 1.854-.437 1.69-.437 2.706c0 1.023.146 1.935.437 2.738.298.796.735 1.424 1.31 1.886.582.454 1.296.682 2.141.682zm18.992 3.196c-1.641 0-3.058-.341-4.251-1.023-1.186-.689-2.099-1.662-2.738-2.919-.639-1.264-.959-2.752-.959-4.464 0-1.683.32-3.161.959-4.432.646-1.278 1.548-2.273 2.706-2.983 1.158-.717 2.518-1.076 4.08-1.076 1.009 0 1.96.163 2.855.49.902.32 1.697.817 2.386 1.491.696.675 1.243 1.534 1.641 2.578.398 1.037.597 2.273.597 3.707v1.183H54.986v-2.6h9.716c-.007-.739-.167-1.396-.479-1.971-.312-.582-.749-1.041-1.31-1.374-.554-.334-1.2-.501-1.939-.501-.788 0-1.481.192-2.077.575-.597.377-1.062.874-1.396 1.491-.327.611-.494 1.282-.501 2.014v2.269c0 .952.174 1.768.522 2.45.348.675.834 1.193 1.459 1.555.625.355 1.356.533 2.195.533.561 0 1.069-.078 1.523-.234a3.38 3.38 0 0 0 1.183-.714c.334-.312.586-.7.756-1.161l3.601.405c-.227.952-.66 1.783-1.3 2.493-.632.703-1.442 1.25-2.429 1.641-.987.384-2.116.575-3.388.575zm23.472-12.358l-3.516.384c-.099-.355-.273-.689-.522-1.001-.242-.313-.568-.565-.98-.756s-.916-.288-1.513-.288c-.803 0-1.477.174-2.024.522-.54.348-.806.799-.799 1.353-.007.476.167.863.522 1.161.362.298.959.543 1.79.735l2.791.597c1.548.334 2.699.863 3.452 1.587.76.724 1.143 1.673 1.15 2.844-.007 1.03-.309 1.939-.906 2.727-.59.781-1.41 1.392-2.461 1.832s-2.258.661-3.622.661c-2.003 0-3.615-.419-4.837-1.257-1.222-.845-1.95-2.021-2.184-3.526l3.761-.362c.171.739.533 1.296 1.087 1.673s1.275.565 2.163.565c.916 0 1.651-.188 2.205-.565.561-.376.842-.842.842-1.396a1.45 1.45 0 0 0-.543-1.161c-.355-.305-.909-.54-1.662-.703l-2.791-.586c-1.57-.327-2.731-.877-3.484-1.651-.753-.781-1.126-1.768-1.119-2.962-.007-1.008.266-1.882.82-2.621.561-.746 1.339-1.321 2.333-1.726 1.001-.412 2.156-.618 3.462-.618 1.918 0 3.427.408 4.528 1.225 1.108.817 1.793 1.921 2.056 3.313zM95.264 29.32c-1.633 0-3.036-.359-4.208-1.076-1.165-.717-2.063-1.708-2.695-2.972-.625-1.271-.937-2.734-.937-4.389 0-1.662.32-3.129.959-4.4.639-1.278 1.541-2.273 2.706-2.983 1.172-.717 2.557-1.076 4.155-1.076 1.328 0 2.504.245 3.526.735 1.03.483 1.85 1.168 2.461 2.056.611.881.959 1.911 1.044 3.089h-3.686c-.149-.788-.504-1.445-1.065-1.971-.554-.533-1.296-.799-2.227-.799-.788 0-1.481.213-2.077.639-.597.419-1.062 1.023-1.396 1.811-.327.788-.49 1.733-.49 2.834 0 1.115.163 2.074.49 2.876.327.796.785 1.41 1.374 1.843.597.426 1.296.639 2.099.639a3.5 3.5 0 0 0 1.523-.32c.455-.22.835-.536 1.14-.948s.515-.913.629-1.502h3.686c-.093 1.158-.433 2.184-1.023 3.079-.589.888-1.392 1.584-2.408 2.088-1.016.497-2.209.746-3.58.746zm10.177-.32V12.636h3.739v2.727h.17c.299-.945.81-1.672 1.534-2.184.732-.519 1.566-.778 2.504-.778l.714.032c.27.014.493.039.671.075v3.548c-.163-.057-.423-.107-.778-.149a7.14 7.14 0 0 0-1.012-.075c-.703 0-1.335.153-1.896.458-.554.298-.991.714-1.311 1.246s-.479 1.147-.479 1.843V29h-3.856zm11.894 0V12.636h3.857V29h-3.857zm1.939-18.686a2.25 2.25 0 0 1-1.577-.607c-.44-.412-.66-.906-.66-1.481 0-.582.22-1.076.66-1.481a2.23 2.23 0 0 1 1.577-.618c.618 0 1.143.206 1.577.618.44.405.66.898.66 1.481 0 .575-.22 1.069-.66 1.481-.434.405-.959.607-1.577.607zm5.883 24.823v-22.5h3.793v2.706h.224a7.11 7.11 0 0 1 .841-1.268c.362-.455.853-.842 1.47-1.161.618-.327 1.407-.49 2.365-.49 1.265 0 2.405.323 3.42.97 1.023.639 1.833 1.587 2.429 2.844.604 1.25.906 2.784.906 4.602 0 1.797-.295 3.324-.884 4.581s-1.393 2.216-2.408 2.876-2.166.991-3.452.991c-.937 0-1.715-.156-2.333-.469s-1.115-.689-1.491-1.129c-.37-.447-.657-.87-.863-1.268h-.16v8.715h-3.857zm3.782-14.318c0 1.058.149 1.985.448 2.781.305.796.742 1.417 1.31 1.864.575.44 1.271.66 2.088.66.852 0 1.566-.227 2.141-.682.576-.462 1.009-1.09 1.3-1.886.299-.803.448-1.715.448-2.738 0-1.016-.146-1.918-.437-2.706s-.725-1.406-1.3-1.854-1.292-.671-2.152-.671c-.824 0-1.523.217-2.099.65s-1.012 1.04-1.31 1.822c-.291.781-.437 1.701-.437 2.759zm23.139-8.182v2.983h-9.406v-2.983h9.406zm-7.084-3.92h3.856v15.362c0 .518.079.916.235 1.193.163.27.376.455.639.554s.554.149.874.149a3.77 3.77 0 0 0 .66-.053l.469-.096.65 3.015c-.206.071-.501.149-.884.234-.377.085-.839.135-1.385.149-.966.028-1.836-.117-2.61-.437a4.06 4.06 0 0 1-1.844-1.513c-.447-.682-.667-1.534-.66-2.557V8.716z"/></svg>