<svg xmlns="http://www.w3.org/2000/svg" width="180" height="38" fill="#407bff" xmlns:v="https://vecta.io/nano"><path d="M60.201 9.182h3.952v14.254c0 1.563-.369 2.937-1.108 4.123-.731 1.186-1.761 2.113-3.09 2.781-1.328.66-2.88.991-4.655.991-1.783 0-3.338-.33-4.666-.991-1.328-.668-2.358-1.594-3.09-2.781s-1.097-2.56-1.097-4.123V9.182h3.952v13.924c0 .909.199 1.719.597 2.429a4.34 4.34 0 0 0 1.705 1.673c.732.398 1.598.597 2.599.597s1.868-.199 2.599-.597c.739-.405 1.307-.962 1.705-1.673s.597-1.52.597-2.429V9.182zm11.934 12.23V31h-3.856V14.636h3.686v2.78h.192c.377-.916.977-1.644 1.8-2.184.831-.54 1.857-.81 3.079-.81 1.129 0 2.113.242 2.951.724.845.483 1.499 1.183 1.96 2.099.469.916.7 2.028.692 3.335V31h-3.856v-9.822c0-1.094-.284-1.95-.852-2.568-.561-.618-1.339-.927-2.333-.927-.675 0-1.275.149-1.8.448-.518.291-.927.714-1.225 1.268-.291.554-.437 1.225-.437 2.014zm27.358-2.45l-3.516.384c-.1-.355-.273-.689-.522-1.001a2.59 2.59 0 0 0-.98-.756c-.412-.192-.916-.288-1.513-.288-.803 0-1.477.174-2.024.522-.54.348-.806.799-.799 1.353-.007.476.167.863.522 1.161.362.298.959.543 1.79.735l2.791.597c1.548.334 2.699.863 3.452 1.587.76.724 1.144 1.673 1.151 2.844-.007 1.03-.309 1.939-.906 2.727-.59.781-1.41 1.392-2.461 1.832s-2.258.661-3.622.661c-2.003 0-3.615-.419-4.837-1.257-1.222-.845-1.95-2.021-2.184-3.526l3.761-.362c.17.739.533 1.296 1.087 1.673s1.275.565 2.163.565c.916 0 1.651-.188 2.205-.565.561-.376.842-.842.842-1.396a1.45 1.45 0 0 0-.543-1.161c-.355-.305-.909-.54-1.662-.703l-2.791-.586c-1.57-.327-2.731-.877-3.484-1.651-.753-.781-1.126-1.768-1.119-2.962-.007-1.008.266-1.882.82-2.621.561-.746 1.339-1.321 2.333-1.726 1.001-.412 2.156-.618 3.462-.618 1.918 0 3.427.408 4.528 1.225 1.108.817 1.793 1.921 2.056 3.313zm3.532 18.175v-22.5h3.792v2.706h.224a7.11 7.11 0 0 1 .841-1.268c.363-.455.853-.842 1.471-1.161.618-.327 1.406-.49 2.365-.49 1.264 0 2.404.323 3.419.97 1.023.639 1.833 1.587 2.429 2.844.604 1.25.906 2.784.906 4.602 0 1.797-.295 3.324-.884 4.581s-1.392 2.216-2.408 2.876-2.166.991-3.452.991c-.937 0-1.715-.156-2.333-.469s-1.115-.689-1.491-1.129a7.25 7.25 0 0 1-.863-1.268h-.16v8.715h-3.856zm3.781-14.318c0 1.058.15 1.985.448 2.781.305.796.742 1.417 1.31 1.864.576.44 1.272.66 2.088.66.853 0 1.566-.227 2.142-.682.575-.462 1.008-1.09 1.299-1.886.299-.803.448-1.715.448-2.738 0-1.016-.146-1.918-.437-2.706s-.724-1.406-1.3-1.854-1.292-.671-2.152-.671c-.824 0-1.523.217-2.098.65s-1.012 1.04-1.311 1.822c-.291.781-.437 1.701-.437 2.759zm18.825-13.636V31h-3.856V9.182h3.856zm8.675 22.148c-1.037 0-1.971-.185-2.802-.554a4.56 4.56 0 0 1-1.96-1.662c-.476-.732-.714-1.634-.714-2.706 0-.923.17-1.687.511-2.291a3.95 3.95 0 0 1 1.396-1.449 7.03 7.03 0 0 1 1.992-.82c.746-.192 1.516-.33 2.312-.416l2.333-.266c.596-.085 1.03-.213 1.299-.383.277-.178.416-.451.416-.82V19.9c0-.803-.238-1.424-.714-1.864s-1.161-.66-2.056-.66c-.945 0-1.694.206-2.248.618-.547.412-.916.898-1.108 1.459l-3.601-.511c.284-.994.753-1.825 1.407-2.493a6.11 6.11 0 0 1 2.397-1.513c.944-.341 1.988-.511 3.132-.511a10.2 10.2 0 0 1 2.354.277c.781.185 1.495.49 2.142.916.646.419 1.164.991 1.555 1.715.398.724.596 1.63.596 2.717V31h-3.707v-2.248h-.128c-.234.455-.564.881-.991 1.278-.419.391-.948.707-1.587.948-.632.234-1.374.352-2.226.352zm1.001-2.834c.774 0 1.445-.153 2.013-.458.569-.312 1.005-.724 1.311-1.236a3.15 3.15 0 0 0 .469-1.673v-1.928c-.121.099-.327.192-.618.277a8.82 8.82 0 0 1-.959.224l-1.055.171-.905.128a6.69 6.69 0 0 0-1.545.384c-.454.178-.813.426-1.076.746-.263.313-.394.717-.394 1.215 0 .71.259 1.246.777 1.609s1.179.543 1.982.543zm24.45-9.535l-3.516.384a2.81 2.81 0 0 0-.522-1.001c-.242-.313-.568-.565-.98-.756s-.916-.288-1.513-.288c-.803 0-1.477.174-2.024.522-.54.348-.806.799-.799 1.353-.007.476.167.863.522 1.161.362.298.959.543 1.79.735l2.791.597c1.548.334 2.699.863 3.452 1.587.76.724 1.143 1.673 1.15 2.844-.007 1.03-.309 1.939-.905 2.727-.59.781-1.41 1.392-2.461 1.832s-2.259.661-3.623.661c-2.002 0-3.615-.419-4.836-1.257-1.222-.845-1.95-2.021-2.184-3.526l3.761-.362c.17.739.532 1.296 1.086 1.673s1.275.565 2.163.565c.916 0 1.651-.188 2.205-.565.561-.376.842-.842.842-1.396a1.45 1.45 0 0 0-.544-1.161c-.355-.305-.909-.54-1.662-.703l-2.791-.586c-1.569-.327-2.731-.877-3.483-1.651-.753-.781-1.126-1.768-1.119-2.962-.007-1.008.266-1.882.82-2.621.561-.746 1.339-1.321 2.333-1.726 1.002-.412 2.156-.618 3.463-.618 1.917 0 3.427.408 4.527 1.225 1.108.817 1.794 1.921 2.057 3.313zm7.388 2.45V31h-3.857V9.182h3.771v8.235h.192c.384-.923.977-1.651 1.779-2.184.81-.54 1.84-.81 3.09-.81 1.136 0 2.127.238 2.972.714s1.499 1.172 1.96 2.088c.469.916.704 2.035.704 3.356V31h-3.857v-9.822c0-1.101-.284-1.957-.852-2.568-.561-.618-1.35-.927-2.365-.927-.682 0-1.293.149-1.833.448a3.14 3.14 0 0 0-1.257 1.268c-.298.554-.447 1.225-.447 2.014zM11 0h12v9H11zM0 23h34v9H0z"/><path d="M24 14h10v18H24zM0 14h10v18H0z"/></svg>