<svg xmlns="http://www.w3.org/2000/svg" width="201" height="36" fill="none" xmlns:v="https://vecta.io/nano"><g fill="#407bff"><path d="M46.104 7.182V29h-3.952V7.182h3.952zm22.21 0V29h-3.516L54.518 14.139h-.181V29h-3.952V7.182h3.537l10.27 14.872h.192V7.182h3.931zm3.348 3.313V7.182H89.07v3.313h-6.744V29h-3.92V10.495h-6.744zM92.425 29V7.182h14.191v3.313H96.378v5.923h9.503v3.313h-9.503v5.955h10.323V29H92.425zm18.223 0V7.182h8.182c1.676 0 3.082.291 4.219.874 1.143.582 2.006 1.399 2.588 2.45.59 1.044.885 2.262.885 3.654 0 1.399-.299 2.614-.895 3.643-.59 1.023-1.46 1.815-2.61 2.376-1.151.554-2.564.831-4.24.831h-5.828v-3.281h5.295c.98 0 1.783-.135 2.408-.405.625-.277 1.086-.678 1.385-1.204.305-.533.458-1.186.458-1.96s-.153-1.435-.458-1.982c-.306-.554-.771-.973-1.396-1.257-.625-.291-1.431-.437-2.418-.437H114.6V29h-3.952zm11.271-9.886L127.321 29h-4.411l-5.305-9.886h4.314zm26.916-4.57h-3.984c-.114-.653-.323-1.232-.629-1.736-.305-.511-.685-.945-1.14-1.3s-.973-.621-1.555-.799c-.575-.185-1.197-.277-1.864-.277-1.186 0-2.238.298-3.154.895-.916.589-1.633 1.456-2.152 2.599-.518 1.136-.777 2.525-.777 4.166 0 1.669.259 3.075.777 4.219.526 1.136 1.243 1.996 2.152 2.578.916.575 1.964.863 3.143.863.653 0 1.264-.085 1.832-.256.576-.178 1.091-.437 1.545-.778.462-.341.849-.76 1.161-1.257.32-.497.54-1.065.661-1.704l3.984.021a8.58 8.58 0 0 1-.969 2.919 8.61 8.61 0 0 1-1.928 2.408c-.796.689-1.726 1.229-2.792 1.619-1.065.384-2.248.575-3.547.575-1.918 0-3.63-.444-5.135-1.332s-2.692-2.17-3.558-3.846-1.3-3.686-1.3-6.03c0-2.351.437-4.361 1.31-6.03.874-1.676 2.063-2.958 3.569-3.846s3.21-1.332 5.114-1.332c1.214 0 2.343.17 3.388.511a8.68 8.68 0 0 1 2.791 1.502c.816.653 1.488 1.456 2.013 2.408.533.945.881 2.024 1.044 3.239zm23.115 3.548c0 2.351-.44 4.364-1.321 6.04-.873 1.669-2.066 2.947-3.579 3.835-1.506.888-3.214 1.332-5.124 1.332s-3.623-.444-5.135-1.332c-1.506-.895-2.699-2.177-3.58-3.846-.873-1.676-1.31-3.686-1.31-6.03 0-2.351.437-4.361 1.31-6.03.881-1.676 2.074-2.958 3.58-3.846 1.512-.888 3.224-1.332 5.135-1.332s3.618.444 5.124 1.332c1.513.888 2.706 2.17 3.579 3.846.881 1.669 1.321 3.679 1.321 6.03zm-3.973 0c0-1.655-.259-3.05-.778-4.187-.511-1.143-1.222-2.006-2.131-2.589-.909-.589-1.956-.884-3.142-.884s-2.234.295-3.143.884c-.909.582-1.623 1.445-2.141 2.589-.512 1.136-.768 2.532-.768 4.187s.256 3.054.768 4.197c.518 1.136 1.232 1.999 2.141 2.589.909.582 1.957.874 3.143.874s2.233-.291 3.142-.874c.909-.589 1.62-1.452 2.131-2.589.519-1.143.778-2.543.778-4.197zm7.71-10.909h4.837l6.477 15.81h.256l6.477-15.81h4.837V29h-3.793V14.011h-.202l-6.03 14.925h-2.834l-6.03-14.957h-.202V29h-3.793V7.182z"/><rect y="3" width="30" height="30" rx="3"/><path d="M4 10h2v12H4zm5-3h2v18H9zm5 0h2v18h-2zm5 0h2v18h-2z"/></g><path d="M5 27c2.833 2.264 11 5.433 21 0" stroke="#fff" stroke-width="2" stroke-linecap="round"/><path fill="#407bff" d="M24 10h2v12h-2z"/></svg>