<svg width="618" height="618" viewBox="0 0 618 618" fill="none" xmlns="http://www.w3.org/2000/svg">
<path d="M502.386 295.985C489.941 292.138 483.725 290.217 471.308 286.377C485.173 287.107 492.115 287.474 506.016 288.213C498.403 274.973 494.998 268.452 488.97 255.753C497.642 265.636 502.178 270.664 511.661 280.839C514.291 265.537 517.589 252.202 522.472 237.47C520.178 249.802 519.186 263.128 519.504 275.659C519.764 275.706 519.893 275.729 520.152 275.776C530.442 264.049 541.647 253.133 553.582 243.088C542.205 255.329 532.021 268.679 523.309 282.943C536.241 278.065 549.291 273.416 562.391 269.012C549.236 276.206 536.399 283.596 523.588 291.387C536.428 295.477 542.856 297.524 555.73 301.624C542.422 300.818 535.776 300.416 522.497 299.618C529.491 307.811 533.125 311.944 540.668 320.256C531.324 314.089 526.71 311.013 517.595 304.893C518.87 314.938 519.78 320.03 522.159 330.275C517.615 319.911 515.607 314.759 512.106 304.583C505.583 335.793 507.274 366.048 513.582 397.071C510.454 396.506 508.892 396.225 505.765 395.66C501.197 363.851 502.38 335.369 509.43 304.099C501.558 312.221 497.878 316.348 491.049 324.658C495.778 315.697 498.422 311.246 504.255 302.485C493.061 304.938 487.522 306.179 476.557 308.68C486.613 303.544 491.78 300.999 502.386 295.985Z" fill="#EBEBEB"/>
<path d="M491.36 306.768C502.868 300.666 508.617 297.618 520.098 291.529C506.613 294.833 499.861 296.49 486.343 299.81C491.351 285.383 493.478 278.34 497.03 264.739C490.356 276.067 486.838 281.854 479.421 293.619C473.981 279.078 468.253 266.592 460.704 253.03C465.26 264.717 468.721 277.624 470.748 289.994C470.502 290.088 470.38 290.135 470.134 290.23C457.835 280.63 444.791 271.997 431.19 264.356C444.652 274.257 457.148 285.474 468.37 297.86C454.754 295.482 441.067 293.349 427.374 291.469C441.641 296.081 455.632 300.946 469.671 306.208C457.822 312.621 451.888 315.833 440.005 322.263C452.929 318.988 459.383 317.353 472.279 314.09C466.936 323.444 464.139 328.183 458.279 337.758C466.307 329.954 470.267 326.073 478.08 318.358C478.702 328.465 478.757 333.637 478.332 344.146C480.862 333.116 481.873 327.678 483.415 317.028C495.647 346.473 499.633 376.51 499.227 408.167C502.193 407.028 503.676 406.46 506.643 405.321C505.194 373.219 498.716 345.458 485.953 316.054C495.203 322.564 499.588 325.931 507.848 332.82C501.529 324.899 498.101 321.02 490.737 313.501C502.191 313.823 507.865 314.008 519.104 314.417C508.267 311.25 502.716 309.714 491.36 306.768Z" fill="#F0F0F0"/>
<path d="M519.47 323.872C511.08 319.423 506.89 317.201 498.52 312.762C508.35 315.171 513.271 316.379 523.127 318.799C519.476 308.281 517.926 303.148 515.336 293.232C520.202 301.49 522.766 305.709 528.173 314.285C532.138 303.684 536.314 294.582 541.817 284.697C538.496 293.216 535.972 302.625 534.495 311.643C534.674 311.712 534.763 311.745 534.942 311.814C543.907 304.816 553.417 298.522 563.332 292.953C553.518 300.171 544.409 308.347 536.228 317.376C546.153 315.643 556.131 314.087 566.113 312.717C555.712 316.08 545.514 319.626 535.278 323.461C543.917 328.137 548.243 330.478 556.905 335.165C547.484 332.777 542.778 331.585 533.377 329.206C537.272 336.025 539.311 339.48 543.583 346.459C537.731 340.771 534.843 337.941 529.149 332.317C528.695 339.684 528.655 343.455 528.965 351.115C527.12 343.075 526.383 339.111 525.261 331.347C516.343 352.811 513.437 374.708 513.734 397.786C511.572 396.956 510.49 396.541 508.327 395.712C509.383 372.309 514.106 352.072 523.409 330.637C516.665 335.382 513.47 337.838 507.449 342.86C512.055 337.086 514.553 334.258 519.922 328.777C511.572 329.011 507.436 329.146 499.243 329.445C507.146 327.138 511.192 326.02 519.47 323.872Z" fill="#F5F5F5"/>
<path d="M527.591 472.644H477.087L472.143 392.195H532.535L527.591 472.644Z" fill="#EBEBEB"/>
<path d="M536.448 396.347H467.732L466.496 385.646H537.684L536.448 396.347Z" fill="#F5F5F5"/>
<path d="M376.549 251.353C406.857 221.046 406.857 171.907 376.549 141.599C346.241 111.292 297.103 111.292 266.795 141.599C236.487 171.907 236.487 221.046 266.795 251.353C297.103 281.661 346.241 281.661 376.549 251.353Z" fill="#F5F5F5"/>
<path d="M321.675 262.292C358.024 262.292 387.491 232.825 387.491 196.476C387.491 160.127 358.024 130.66 321.675 130.66C285.326 130.66 255.859 160.127 255.859 196.476C255.859 232.825 285.326 262.292 321.675 262.292Z" fill="#EBEBEB"/>
<path d="M321.675 130.659C320.639 130.659 319.61 130.69 318.585 130.737C353.498 132.351 381.311 161.162 381.311 196.475C381.311 231.787 353.498 260.598 318.585 262.212C319.61 262.259 320.639 262.29 321.675 262.29C358.025 262.29 387.491 232.823 387.491 196.475C387.491 160.126 358.025 130.659 321.675 130.659Z" fill="#E6E6E6"/>
<path d="M321.699 262.214C321.691 262.214 321.683 262.214 321.675 262.214C323.343 262.137 324.986 261.979 326.619 261.78V201.42H384.198C384.319 199.786 384.401 198.141 384.401 196.476C384.401 194.811 384.319 193.166 384.198 191.532H326.619V131.172C324.988 130.973 323.343 130.815 321.675 130.738C321.678 130.738 321.679 130.738 321.681 130.738H316.731V191.533H255.937V201.421H316.731V262.215L321.699 262.214Z" fill="#FAFAFA"/>
<path d="M316.731 130.737H311.787V191.532H316.731V130.737Z" fill="#E6E6E6"/>
<path d="M316.731 201.42H311.787V262.215H316.731V201.42Z" fill="#E6E6E6"/>
<path d="M96.8945 464.221H182.395L182.395 308.82H96.8945L96.8945 464.221Z" fill="#F0F0F0"/>
<path d="M72.706 464.221H96.8945L96.8945 308.82H72.706L72.706 464.221Z" fill="#E6E6E6"/>
<path d="M105.124 362.314H173.513V321.34H105.124V362.314Z" fill="#FAFAFA"/>
<path d="M105.124 407.763H173.513V366.79H105.124V407.763Z" fill="#FAFAFA"/>
<path d="M105.124 453.213H173.513V412.24H105.124V453.213Z" fill="#FAFAFA"/>
<path d="M105.123 472.644H172.181L173.513 464.207H105.123V472.644Z" fill="#E6E6E6"/>
<path d="M82.4757 472.644H105.123V464.207H81.1433L82.4757 472.644Z" fill="#E0E0E0"/>
<path d="M127.56 308.821L129.58 285.74H100.309L98.2891 308.821H127.56Z" fill="#F0F0F0"/>
<path d="M127.56 308.821L129.58 285.74H131.156L129.136 308.821H127.56Z" fill="#E0E0E0"/>
<path d="M124.782 306.467L126.39 288.093H103.087L101.479 306.467H124.782Z" fill="#FAFAFA"/>
<path d="M122.996 304.955L124.339 289.606H104.873L103.53 304.955H122.996Z" fill="#E6E6E6"/>
<path d="M140.418 335.019C142.936 335.019 144.978 332.978 144.978 330.459C144.978 327.941 142.936 325.9 140.418 325.9C137.9 325.9 135.859 327.941 135.859 330.459C135.859 332.978 137.9 335.019 140.418 335.019Z" fill="#E0E0E0"/>
<path d="M142.775 335.019C145.293 335.019 147.335 332.978 147.335 330.459C147.335 327.941 145.293 325.9 142.775 325.9C140.257 325.9 138.216 327.941 138.216 330.459C138.216 332.978 140.257 335.019 142.775 335.019Z" fill="#F0F0F0"/>
<path d="M140.418 380.294C142.936 380.294 144.978 378.252 144.978 375.734C144.978 373.216 142.936 371.175 140.418 371.175C137.9 371.175 135.859 373.216 135.859 375.734C135.859 378.252 137.9 380.294 140.418 380.294Z" fill="#E0E0E0"/>
<path d="M142.775 380.294C145.293 380.294 147.335 378.252 147.335 375.734C147.335 373.216 145.293 371.175 142.775 371.175C140.257 371.175 138.216 373.216 138.216 375.734C138.216 378.252 140.257 380.294 142.775 380.294Z" fill="#F0F0F0"/>
<path d="M140.418 425.57C142.936 425.57 144.978 423.528 144.978 421.01C144.978 418.492 142.936 416.45 140.418 416.45C137.9 416.45 135.859 418.492 135.859 421.01C135.859 423.528 137.9 425.57 140.418 425.57Z" fill="#E0E0E0"/>
<path d="M142.775 425.57C145.293 425.57 147.335 423.528 147.335 421.01C147.335 418.492 145.293 416.45 142.775 416.45C140.257 416.45 138.216 418.492 138.216 421.01C138.216 423.528 140.257 425.57 142.775 425.57Z" fill="#F0F0F0"/>
<path d="M160.56 308.821H131.156L134.419 271.531H163.822L160.56 308.821Z" fill="#E6E6E6"/>
<path d="M160.56 308.821H161.964L165.226 271.531H163.822L160.56 308.821Z" fill="#E0E0E0"/>
<path d="M157.895 305.019H134.487L137.083 275.333H160.492L157.895 305.019Z" fill="#F0F0F0"/>
<path d="M156.181 302.575H136.627L138.796 277.776H158.351L156.181 302.575Z" fill="#FAFAFA"/>
<path d="M143.898 286.532L148.709 291.342L153.519 286.532L148.709 281.721L143.898 286.532Z" fill="#EBEBEB"/>
<path d="M151.997 297.352L145.983 291.339L139.969 297.352H151.997Z" fill="#F0F0F0"/>
<path d="M556.078 492.539H515.139V492.848H556.078V492.539Z" fill="#EBEBEB"/>
<path d="M409.388 495.893H398.643V496.202H409.388V495.893Z" fill="#EBEBEB"/>
<path d="M513.902 481.061H490.18V481.37H513.902V481.061Z" fill="#EBEBEB"/>
<path d="M118.226 483.138H64.8394V483.447H118.226V483.138Z" fill="#EBEBEB"/>
<path d="M137.059 483.138H129.231V483.447H137.059V483.138Z" fill="#EBEBEB"/>
<path d="M278.282 488.357H162.498V488.666H278.282V488.357Z" fill="#EBEBEB"/>
<path d="M292.949 417.521H54.279C50.3893 417.521 47.2239 414.355 47.2239 410.466V74.9757C47.2239 71.0861 50.3893 67.9207 54.279 67.9207H292.949C296.838 67.9207 300.003 71.0861 300.003 74.9757V410.466C300.003 414.355 296.838 417.521 292.949 417.521ZM54.279 68.2309C50.5586 68.2309 47.5329 71.2566 47.5329 74.977V410.467C47.5329 414.187 50.5586 417.213 54.279 417.213H292.949C296.668 417.213 299.694 414.187 299.694 410.467V74.9757C299.694 71.2566 296.668 68.2297 292.949 68.2297L54.279 68.2309Z" fill="#EBEBEB"/>
<path d="M560.291 417.521H321.622C317.732 417.521 314.568 414.355 314.568 410.466V74.9757C314.568 71.0861 317.734 67.9207 321.622 67.9207H560.291C564.182 67.9207 567.346 71.0861 567.346 74.9757V410.466C567.347 414.355 564.182 417.521 560.291 417.521ZM321.622 68.2309C317.903 68.2309 314.877 71.2566 314.877 74.977V410.467C314.877 414.187 317.903 417.213 321.622 417.213H560.291C564.011 417.213 567.037 414.187 567.037 410.467V74.9757C567.037 71.2566 564.011 68.2297 560.291 68.2297L321.622 68.2309Z" fill="#EBEBEB"/>
<path d="M618 472.644H0V472.953H618V472.644Z" fill="#EBEBEB"/>
<path d="M303.04 523.71C435.393 523.71 542.687 517.445 542.687 509.715C542.687 501.986 435.393 495.72 303.04 495.72C170.687 495.72 63.3933 501.986 63.3933 509.715C63.3933 517.445 170.687 523.71 303.04 523.71Z" fill="#F5F5F5"/>
<path d="M477.506 128.042H467.995C477.568 128.042 484.922 135.803 484.421 145.376L469.289 434.083C468.788 443.656 460.62 451.417 451.047 451.417H460.558C470.131 451.417 478.299 443.656 478.801 434.083L493.932 145.376C494.433 135.803 487.079 128.042 477.506 128.042Z" fill="#407BFF"/>
<path opacity="0.1" d="M477.506 128.042H467.995C477.568 128.042 484.922 135.803 484.421 145.376L469.289 434.083C468.788 443.656 460.62 451.417 451.047 451.417H460.558C470.131 451.417 478.299 443.656 478.801 434.083L493.932 145.376C494.433 135.803 487.079 128.042 477.506 128.042Z" fill="white"/>
<path d="M457.723 451.417H341.271C331.698 451.417 324.344 443.656 324.846 434.083L339.977 145.376C340.478 135.803 348.646 128.042 358.219 128.042H474.671C484.244 128.042 491.598 135.803 491.096 145.376L475.965 434.083C475.463 443.656 467.296 451.417 457.723 451.417Z" fill="#407BFF"/>
<path opacity="0.4" d="M457.723 451.417H341.271C331.698 451.417 324.344 443.656 324.846 434.083L339.977 145.376C340.478 135.803 348.646 128.042 358.219 128.042H474.671C484.244 128.042 491.598 135.803 491.096 145.376L475.965 434.083C475.463 443.656 467.296 451.417 457.723 451.417Z" fill="white"/>
<path d="M403.004 122.439C409.464 122.439 415.925 122.439 422.386 122.439C423.34 122.439 423.471 120.956 422.515 120.956C416.055 120.956 409.594 120.956 403.134 120.956C402.18 120.956 402.047 122.439 403.004 122.439Z" fill="#407BFF"/>
<path d="M429.485 122.439C431.342 122.439 433.198 122.439 435.055 122.439C436.009 122.439 436.14 120.956 435.185 120.956C433.328 120.956 431.472 120.956 429.615 120.956C428.661 120.956 428.53 122.439 429.485 122.439Z" fill="#407BFF"/>
<g opacity="0.3">
<path d="M403.004 122.439C409.464 122.439 415.925 122.439 422.386 122.439C423.34 122.439 423.471 120.956 422.515 120.956C416.055 120.956 409.594 120.956 403.134 120.956C402.18 120.956 402.047 122.439 403.004 122.439Z" fill="white"/>
</g>
<g opacity="0.3">
<path d="M429.485 122.439C431.342 122.439 433.198 122.439 435.055 122.439C436.009 122.439 436.14 120.956 435.185 120.956C433.328 120.956 431.472 120.956 429.615 120.956C428.661 120.956 428.53 122.439 429.485 122.439Z" fill="white"/>
</g>
<path d="M358.63 133.604C351.983 133.604 346.291 139.015 345.943 145.668L330.812 434.375C330.65 437.471 331.688 440.363 333.735 442.52C335.775 444.671 338.598 445.855 341.682 445.855H458.134C464.782 445.855 470.473 440.444 470.822 433.793L485.952 145.085C486.114 141.99 485.077 139.097 483.029 136.94C480.988 134.79 478.165 133.605 475.08 133.605L358.63 133.604Z" fill="#407BFF"/>
<path d="M417.077 410.591C416.654 418.647 409.782 425.177 401.726 425.177C393.67 425.177 387.482 418.646 387.904 410.591C388.326 402.534 395.198 396.005 403.255 396.005C411.311 396.005 417.498 402.534 417.077 410.591Z" fill="white"/>
<path d="M411.506 409.261C407.201 406.263 398.234 406.263 393.615 409.261C391.968 409.565 390.644 410.998 390.554 412.715C390.452 414.651 398.496 414.651 398.598 412.715C398.642 411.88 398.375 411.121 397.915 410.515C400.852 409.866 404.204 409.866 407.073 410.515C406.55 411.121 406.204 411.88 406.159 412.715C406.058 414.651 414.102 414.651 414.205 412.715C414.295 410.998 413.122 409.565 411.506 409.261Z" fill="#407BFF"/>
<path opacity="0.2" d="M411.506 409.261C407.201 406.263 398.234 406.263 393.615 409.261C391.968 409.565 390.644 410.998 390.554 412.715C390.452 414.651 398.496 414.651 398.598 412.715C398.642 411.88 398.375 411.121 397.915 410.515C400.852 409.866 404.204 409.866 407.073 410.515C406.55 411.121 406.204 411.88 406.159 412.715C406.058 414.651 414.102 414.651 414.205 412.715C414.295 410.998 413.122 409.565 411.506 409.261Z" fill="black"/>
<path d="M402.05 240.536C401.993 241.631 401.246 242.26 400.002 242.26C399.333 242.26 398.474 242.078 398.175 241.209L398.117 241.04L397.263 241.537L397.311 241.662C397.692 242.639 398.654 243.2 399.953 243.2C401.736 243.2 402.942 242.155 403.027 240.538L403.365 234.108H402.388L402.05 240.536Z" fill="white"/>
<path d="M407.748 236.439C405.839 236.439 404.267 237.924 404.167 239.817C404.068 241.712 405.485 243.197 407.393 243.197C409.294 243.197 410.862 241.712 410.961 239.817C411.06 237.924 409.649 236.439 407.748 236.439ZM407.44 242.296C406.058 242.296 405.033 241.208 405.105 239.819C405.178 238.429 406.316 237.342 407.699 237.342C409.074 237.342 410.095 238.429 410.022 239.819C409.949 241.207 408.816 242.296 407.44 242.296Z" fill="white"/>
<path d="M415.3 236.439C414.427 236.439 413.709 236.761 413.195 237.375L413.366 234.106H412.439L411.97 243.062H412.897L413.076 239.646C413.151 238.203 413.947 237.342 415.204 237.342C416.244 237.342 416.831 237.986 416.775 239.066L416.566 243.062H417.506L417.715 239.066C417.796 237.47 416.848 236.439 415.3 236.439Z" fill="white"/>
<path d="M422.271 236.439C421.398 236.439 420.681 236.761 420.166 237.375L420.208 236.577H419.281L418.941 243.062H419.868L420.047 239.646C420.123 238.203 420.919 237.342 422.176 237.342C423.215 237.342 423.802 237.986 423.746 239.066L423.536 243.062H424.476L424.685 239.066C424.767 237.47 423.821 236.439 422.271 236.439Z" fill="white"/>
<path d="M431.208 216.18C441.965 205.701 442.624 188.932 432.68 178.724C422.736 168.516 405.955 168.736 395.198 179.215C384.441 189.694 383.783 206.464 393.727 216.671C403.671 226.879 420.452 226.659 431.208 216.18Z" fill="white"/>
<path d="M429.84 214.785C439.775 205.106 440.384 189.616 431.199 180.187C422.013 170.758 406.513 170.961 396.577 180.641C386.641 190.32 386.033 205.81 395.218 215.238C404.403 224.667 419.904 224.464 429.84 214.785Z" fill="#407BFF"/>
<path opacity="0.7" d="M429.84 214.785C439.775 205.106 440.384 189.616 431.199 180.187C422.013 170.758 406.513 170.961 396.577 180.641C386.641 190.32 386.033 205.81 395.218 215.238C404.403 224.667 419.904 224.464 429.84 214.785Z" fill="white"/>
<path opacity="0.7" d="M411.923 222.176C420.48 222.176 428.231 217.775 432.952 211.121C427.548 206.475 416.292 210.874 410.311 212.25C405.771 213.294 402.273 216.637 400.222 219.102C403.634 221.055 407.617 222.176 411.923 222.176Z" fill="white"/>
<path d="M405.677 186.035C405.677 186.035 398.704 183.874 395.466 189.481L400.688 188.374C400.688 188.374 396.496 191.215 400.518 198.269C400.518 198.269 399.465 192.063 404.019 190.801C408.571 189.541 405.677 186.035 405.677 186.035Z" fill="#263238"/>
<path opacity="0.3" d="M405.677 186.035C405.677 186.035 398.704 183.874 395.466 189.481L400.688 188.374C400.688 188.374 396.496 191.215 400.518 198.269C400.518 198.269 399.465 192.063 404.019 190.801C408.571 189.541 405.677 186.035 405.677 186.035Z" fill="black"/>
<path d="M408.866 215.645C409.034 214.508 409.577 213.44 410.408 212.613C410.447 211.525 410.109 210.477 409.451 209.645L419.407 201.707C419.783 205.693 420.084 208.843 422.088 210.056C420.35 212.252 417.14 216.206 412.73 217.833C408.321 219.46 408.686 217.453 408.866 215.645Z" fill="#B55B52"/>
<path opacity="0.1" d="M410.388 212.194C416.752 211.211 418.435 204.078 418.435 204.078L412.538 207.186L409.452 209.647C410.024 210.37 410.337 211.26 410.388 212.194Z" fill="black"/>
<path d="M419.828 192.49C420.21 198.536 420.325 202.664 416.941 206.009C410.195 212.649 405.364 210.37 403.024 204.748C400.946 199.681 400.67 190.646 406.656 186.934C412.641 183.222 419.443 186.436 419.828 192.49Z" fill="#B55B52"/>
<path d="M407.486 196.316C407.403 195.795 407.615 195.314 407.96 195.242C408.305 195.171 408.651 195.535 408.734 196.057C408.817 196.578 408.604 197.059 408.259 197.131C407.915 197.203 407.568 196.838 407.486 196.316Z" fill="#263238"/>
<path d="M403.32 197.308C403.403 197.821 403.187 198.3 402.871 198.353C402.553 198.408 402.183 198.057 402.105 197.534C402.028 197.011 402.236 196.535 402.553 196.481C402.869 196.426 403.241 196.785 403.32 197.308Z" fill="#263238"/>
<path d="M405.195 197.348L405.92 201.718C405.423 201.923 404.901 202.053 404.373 202.1C404.05 202.109 403.793 201.857 403.8 201.533C403.802 201.416 403.841 201.3 403.909 201.2C404.579 199.998 405.015 198.691 405.195 197.348Z" fill="#A02724"/>
<path d="M411.323 194.015C411.375 194.012 411.426 193.993 411.467 193.958C411.587 193.834 411.588 193.642 411.469 193.529C411.465 193.525 411.463 193.523 411.459 193.519C410.751 192.828 409.733 192.542 408.728 192.75C408.558 192.794 408.451 192.964 408.485 193.131L408.487 193.136C408.529 193.299 408.692 193.396 408.86 193.357C409.652 193.21 410.448 193.445 411.003 193.991C411.092 194.061 411.217 194.071 411.323 194.015Z" fill="#263238"/>
<path d="M401.007 196.308C401.109 196.284 401.197 196.214 401.243 196.117C401.545 195.367 402.183 194.791 402.958 194.569C403.125 194.532 403.24 194.368 403.214 194.202C403.186 194.035 403.027 193.927 402.857 193.958C401.875 194.225 401.06 194.944 400.669 195.887C400.591 196.041 400.651 196.22 400.799 196.289C400.804 196.292 400.809 196.293 400.813 196.295C400.874 196.324 400.942 196.327 401.007 196.308Z" fill="#263238"/>
<path d="M404.027 204.18C404.027 204.18 406.127 203.161 412.264 201.709C411.894 203.703 410.829 205.491 407.682 206.235C406.138 206.756 404.53 205.949 404.089 204.433C404.064 204.35 404.043 204.266 404.027 204.18Z" fill="#263238"/>
<path d="M408.858 204.437C407.637 204.658 406.496 205.254 405.598 206.141C406.252 206.379 406.975 206.406 407.667 206.218C408.887 206 410.026 205.405 410.919 204.516C410.269 204.271 409.547 204.243 408.858 204.437Z" fill="#A02724"/>
<path d="M404.298 204.065C404.508 204.49 404.946 204.75 405.43 204.738C407.251 204.298 409.039 203.711 410.778 202.982C411.349 202.788 411.802 202.329 411.985 201.756C409.377 202.329 406.807 203.102 404.298 204.065Z" fill="white"/>
<path d="M418.586 200.005C418.586 200.005 410.834 195.85 415.16 190.873C419.487 185.896 423.459 191.532 422.744 195.234C422.03 198.934 418.586 200.005 418.586 200.005Z" fill="#263238"/>
<path opacity="0.2" d="M418.586 200.005C418.586 200.005 410.834 195.85 415.16 190.873C419.487 185.896 423.459 191.532 422.744 195.234C422.03 198.934 418.586 200.005 418.586 200.005Z" fill="black"/>
<path d="M423.22 198.399C422.555 199.933 421.322 201.171 419.788 201.842C417.742 202.711 416.514 201 416.912 198.971C417.271 197.135 418.764 194.47 420.895 194.466C422.443 194.485 423.616 195.755 423.515 197.304C423.491 197.681 423.391 198.053 423.22 198.399Z" fill="#B55B52"/>
<path d="M409.278 181.339C409.278 181.339 400.617 178.114 400.267 184.773C399.919 191.433 412.484 194.279 417.129 194.051C421.774 193.821 423.717 195.234 423.717 195.234C423.717 195.234 424.049 189.788 422.623 187.578C421.198 185.367 420.708 178.534 409.278 181.339Z" fill="#263238"/>
<path d="M396.845 155.167C396.949 153.191 398.523 151.599 400.628 151.599C401.904 151.599 402.985 152.252 403.507 153.259L403.029 153.526C402.618 152.676 401.69 152.103 400.602 152.103C398.784 152.103 397.457 153.468 397.368 155.167C397.279 156.867 398.463 158.231 400.281 158.231C401.379 158.231 402.377 157.648 402.878 156.779L403.328 157.046C402.711 158.065 401.549 158.736 400.255 158.736C398.15 158.735 396.741 157.144 396.845 155.167Z" fill="white"/>
<path d="M409.447 153.684L409.188 158.626H408.683L408.742 157.51C408.288 158.251 407.501 158.735 406.553 158.735C405.15 158.735 404.052 157.618 404.129 156.155C404.205 154.693 405.42 153.575 406.823 153.575C407.773 153.575 408.508 154.06 408.884 154.802L408.942 153.684H409.447ZM408.814 156.155C408.876 154.98 408.015 154.05 406.839 154.05C405.663 154.05 404.695 154.98 404.633 156.155C404.571 157.332 405.441 158.26 406.618 158.26C407.795 158.26 408.753 157.332 408.814 156.155Z" fill="white"/>
<path d="M411.092 151.412H411.587L411.209 158.627H410.714L411.092 151.412Z" fill="white"/>
<path d="M413.109 151.412H413.604L413.226 158.627H412.731L413.109 151.412Z" fill="white"/>
<path d="M414.941 152.094C414.953 151.886 415.139 151.708 415.357 151.708C415.574 151.708 415.742 151.886 415.731 152.094C415.72 152.311 415.532 152.489 415.315 152.489C415.1 152.489 414.93 152.311 414.941 152.094ZM415.007 153.684H415.501L415.242 158.626H414.747L415.007 153.684Z" fill="white"/>
<path d="M421.106 155.553L420.946 158.627H420.442L420.602 155.553C420.65 154.645 420.157 154.051 419.228 154.051C418.259 154.051 417.465 154.684 417.396 156.018L417.259 158.627H416.764L417.024 153.685H417.518L417.469 154.625C417.883 153.893 418.532 153.577 419.292 153.577C420.469 153.575 421.17 154.357 421.106 155.553Z" fill="white"/>
<path d="M427.482 153.684L427.235 158.388C427.157 159.87 426.016 160.711 424.653 160.711C423.497 160.711 422.701 160.246 422.382 159.524L422.83 159.277C423.058 159.801 423.59 160.235 424.677 160.235C425.913 160.235 426.681 159.514 426.74 158.387L426.788 157.478C426.343 158.239 425.556 158.733 424.598 158.733C423.186 158.733 422.098 157.617 422.174 156.154C422.251 154.692 423.456 153.574 424.869 153.574C425.827 153.574 426.562 154.069 426.927 154.83L426.987 153.683L427.482 153.684ZM426.859 156.155C426.921 154.98 426.051 154.05 424.875 154.05C423.698 154.05 422.731 154.98 422.669 156.155C422.607 157.332 423.477 158.26 424.654 158.26C425.829 158.26 426.797 157.332 426.859 156.155Z" fill="white"/>
<path d="M428.619 158.281C428.632 158.034 428.83 157.836 429.087 157.836C429.335 157.836 429.522 158.034 429.509 158.281C429.496 158.528 429.288 158.726 429.04 158.726C428.783 158.726 428.605 158.527 428.619 158.281Z" fill="white"/>
<path d="M430.725 158.281C430.737 158.034 430.936 157.836 431.194 157.836C431.441 157.836 431.629 158.034 431.615 158.281C431.603 158.528 431.394 158.726 431.147 158.726C430.889 158.726 430.711 158.527 430.725 158.281Z" fill="white"/>
<path d="M432.831 158.281C432.844 158.034 433.043 157.836 433.3 157.836C433.547 157.836 433.735 158.034 433.721 158.281C433.709 158.528 433.5 158.726 433.253 158.726C432.996 158.726 432.818 158.527 432.831 158.281Z" fill="white"/>
<path d="M356.026 312.539H354.659L354.566 314.315H354.239L354.466 309.985H356.173C356.878 309.985 357.423 310.56 357.386 311.266C357.355 311.853 356.927 312.347 356.368 312.495L357.35 314.315H356.972L356.026 312.539ZM354.675 312.23H356.054C356.58 312.23 357.03 311.796 357.057 311.266C357.085 310.728 356.681 310.294 356.156 310.294H354.776L354.675 312.23Z" fill="white"/>
<path d="M360.81 312.781C360.808 312.83 360.799 312.88 360.797 312.929H357.995C358.032 313.628 358.54 314.087 359.246 314.087C359.752 314.087 360.149 313.853 360.346 313.524L360.609 313.684C360.333 314.106 359.836 314.384 359.225 314.384C358.272 314.384 357.633 313.703 357.682 312.769C357.73 311.86 358.423 311.153 359.368 311.153C360.307 311.153 360.855 311.933 360.81 312.781ZM358.01 312.626H360.497C360.468 311.872 359.958 311.451 359.352 311.451C358.646 311.45 358.107 311.939 358.01 312.626Z" fill="white"/>
<path d="M361.321 312.769C361.369 311.853 362.099 311.153 363.032 311.153C363.639 311.153 364.142 311.463 364.339 311.945L364.079 312.094C363.92 311.704 363.513 311.451 363.017 311.451C362.269 311.451 361.676 312.033 361.636 312.769C361.598 313.505 362.129 314.086 362.878 314.086C363.38 314.086 363.802 313.825 364.027 313.442L364.278 313.597C364.006 314.073 363.469 314.383 362.862 314.383C361.929 314.383 361.273 313.683 361.321 312.769Z" fill="white"/>
<path d="M364.757 312.769C364.805 311.853 365.565 311.153 366.468 311.153C367.365 311.153 368.052 311.851 368.004 312.769C367.956 313.683 367.196 314.384 366.298 314.384C365.396 314.383 364.709 313.683 364.757 312.769ZM367.689 312.769C367.727 312.032 367.189 311.451 366.453 311.451C365.717 311.451 365.112 312.033 365.072 312.769C365.034 313.505 365.579 314.086 366.314 314.086C367.051 314.086 367.651 313.505 367.689 312.769Z" fill="white"/>
<path d="M370.17 311.179L370.153 311.476C369.622 311.476 369.104 311.803 369.062 312.594L368.972 314.315H368.663L368.825 311.222H369.134L369.102 311.828C369.338 311.34 369.749 311.179 370.17 311.179Z" fill="white"/>
<path d="M373.707 309.985L373.48 314.315H373.171L373.208 313.598C372.928 314.074 372.436 314.384 371.837 314.384C370.952 314.384 370.271 313.684 370.319 312.769C370.367 311.853 371.121 311.153 372.006 311.153C372.606 311.153 373.067 311.463 373.295 311.939L373.398 309.985H373.707ZM373.252 312.769C373.29 312.032 372.745 311.451 372.009 311.451C371.273 311.451 370.668 312.033 370.629 312.769C370.591 313.505 371.135 314.086 371.871 314.086C372.607 314.086 373.213 313.505 373.252 312.769Z" fill="white"/>
<g opacity="0.6">
<path d="M398.601 309.985L398.374 314.315H398.046L398.155 312.242H395.637L395.528 314.315H395.201L395.428 309.985H395.756L395.653 311.933H398.171L398.274 309.985H398.601Z" fill="white"/>
<path d="M399.256 312.769C399.304 311.853 400.065 311.153 400.967 311.153C401.864 311.153 402.551 311.851 402.503 312.769C402.455 313.683 401.695 314.384 400.798 314.384C399.895 314.383 399.208 313.683 399.256 312.769ZM402.188 312.769C402.226 312.032 401.687 311.451 400.952 311.451C400.217 311.451 399.611 312.033 399.573 312.769C399.534 313.505 400.078 314.086 400.815 314.086C401.549 314.086 402.149 313.505 402.188 312.769Z" fill="white"/>
<path d="M403.398 309.798H403.708L403.472 314.314H403.162L403.398 309.798Z" fill="white"/>
<path d="M407.686 309.985L407.458 314.315H407.149L407.186 313.598C406.907 314.074 406.415 314.384 405.816 314.384C404.931 314.384 404.25 313.684 404.298 312.769C404.346 311.853 405.1 311.153 405.985 311.153C406.584 311.153 407.045 311.463 407.274 311.939L407.377 309.985H407.686ZM407.231 312.769C407.269 312.032 406.724 311.451 405.987 311.451C405.252 311.451 404.646 312.033 404.608 312.769C404.57 313.505 405.114 314.086 405.85 314.086C406.587 314.086 407.193 313.505 407.231 312.769Z" fill="white"/>
<path d="M409.929 312.769C409.977 311.853 410.706 311.153 411.641 311.153C412.247 311.153 412.751 311.463 412.947 311.945L412.687 312.094C412.527 311.704 412.12 311.451 411.626 311.451C410.877 311.451 410.284 312.033 410.245 312.769C410.207 313.505 410.74 314.086 411.489 314.086C411.989 314.086 412.411 313.825 412.636 313.442L412.888 313.597C412.616 314.073 412.08 314.383 411.474 314.383C410.537 314.383 409.881 313.683 409.929 312.769Z" fill="white"/>
<path d="M416.694 311.222L416.532 314.315H416.217L416.254 313.616C415.969 314.08 415.477 314.384 414.883 314.384C414.005 314.384 413.318 313.684 413.366 312.769C413.415 311.853 414.175 311.153 415.052 311.153C415.646 311.153 416.107 311.456 416.343 311.921L416.38 311.222H416.694ZM416.297 312.769C416.335 312.032 415.796 311.451 415.061 311.451C414.324 311.451 413.719 312.033 413.68 312.769C413.642 313.505 414.187 314.086 414.924 314.086C415.659 314.086 416.259 313.505 416.297 312.769Z" fill="white"/>
<path d="M417.717 309.798H418.026L417.79 314.314H417.481L417.717 309.798Z" fill="white"/>
<path d="M418.978 309.798H419.288L419.052 314.314H418.742L418.978 309.798Z" fill="white"/>
</g>
<path d="M440.395 313.133C440.361 313.79 439.808 314.315 439.152 314.315H437.284L437.512 309.985H439.239C439.869 309.985 440.35 310.498 440.318 311.123C440.295 311.544 440.054 311.89 439.711 312.07C440.133 312.236 440.421 312.638 440.395 313.133ZM437.823 310.294L437.737 311.952H439.135C439.58 311.952 439.964 311.581 439.988 311.123C440.011 310.665 439.666 310.294 439.221 310.294H437.823ZM440.068 313.133C440.093 312.651 439.729 312.262 439.26 312.262H437.719L437.628 314.006H439.168C439.639 314.006 440.043 313.615 440.068 313.133Z" fill="white"/>
<path d="M441.309 309.798H441.619L441.383 314.314H441.074L441.309 309.798Z" fill="white"/>
<path d="M445.032 311.222L444.87 314.315H444.561L444.592 313.726C444.333 314.185 443.927 314.383 443.45 314.383C442.714 314.383 442.275 313.895 442.315 313.146L442.416 311.221H442.732L442.63 313.146C442.6 313.714 442.908 314.086 443.49 314.086C444.096 314.086 444.593 313.691 444.637 312.855L444.723 311.222H445.032Z" fill="white"/>
<path d="M448.819 312.781C448.816 312.83 448.808 312.88 448.805 312.929H446.003C446.04 313.628 446.548 314.087 447.254 314.087C447.761 314.087 448.157 313.853 448.354 313.524L448.617 313.684C448.342 314.106 447.845 314.384 447.233 314.384C446.28 314.384 445.641 313.703 445.69 312.769C445.739 311.86 446.431 311.153 447.376 311.153C448.316 311.153 448.863 311.933 448.819 312.781ZM446.018 312.626H448.505C448.476 311.872 447.966 311.451 447.36 311.451C446.654 311.45 446.116 311.939 446.018 312.626Z" fill="white"/>
<path d="M450.173 311.525L450.068 313.535C450.04 314.08 450.33 314.092 450.963 314.037L450.948 314.315C450.131 314.44 449.715 314.241 449.752 313.535L449.857 311.525H449.177L449.193 311.222H449.873L449.914 310.449L450.234 310.356L450.188 311.222H451.11L451.094 311.525H450.173Z" fill="white"/>
<path d="M451.375 312.769C451.423 311.853 452.183 311.153 453.087 311.153C453.984 311.153 454.67 311.851 454.623 312.769C454.575 313.683 453.815 314.384 452.917 314.384C452.014 314.383 451.327 313.683 451.375 312.769ZM454.307 312.769C454.345 312.032 453.806 311.451 453.071 311.451C452.334 311.451 451.728 312.033 451.689 312.769C451.651 313.505 452.196 314.086 452.932 314.086C453.668 314.086 454.267 313.505 454.307 312.769Z" fill="white"/>
<path d="M455.151 312.769C455.199 311.853 455.959 311.153 456.861 311.153C457.759 311.153 458.446 311.851 458.398 312.769C458.35 313.683 457.589 314.384 456.692 314.384C455.79 314.383 455.103 313.683 455.151 312.769ZM458.083 312.769C458.121 312.032 457.582 311.451 456.847 311.451C456.111 311.451 455.506 312.033 455.467 312.769C455.429 313.505 455.973 314.086 456.709 314.086C457.445 314.086 458.044 313.505 458.083 312.769Z" fill="white"/>
<path d="M459.803 311.525L459.698 313.535C459.67 314.08 459.96 314.092 460.593 314.037L460.578 314.315C459.762 314.44 459.345 314.241 459.382 313.535L459.487 311.525H458.807L458.823 311.222H459.503L459.544 310.449L459.864 310.356L459.818 311.222H460.74L460.724 311.525H459.803Z" fill="white"/>
<path d="M464.035 312.39L463.934 314.315H463.619L463.719 312.39C463.748 311.822 463.441 311.45 462.858 311.45C462.253 311.45 461.756 311.845 461.711 312.681L461.626 314.314H461.317L461.545 309.984H461.854L461.758 311.809C462.017 311.351 462.423 311.153 462.9 311.153C463.636 311.153 464.075 311.643 464.035 312.39Z" fill="white"/>
<path d="M349.893 361.853L350.187 361.686C350.308 362.205 350.73 362.557 351.441 362.557C352.165 362.557 352.549 362.186 352.575 361.692C352.602 361.172 352.155 360.974 351.505 360.764C350.794 360.529 350.155 360.325 350.195 359.57C350.232 358.858 350.831 358.407 351.567 358.407C352.279 358.407 352.727 358.816 352.911 359.316L352.625 359.471C352.484 359.082 352.169 358.722 351.549 358.722C350.95 358.722 350.553 359.074 350.528 359.557C350.501 360.076 350.933 360.237 351.539 360.441C352.293 360.696 352.948 360.936 352.909 361.686C352.872 362.403 352.283 362.874 351.423 362.874C350.614 362.874 350.059 362.464 349.893 361.853Z" fill="white"/>
<path d="M356.911 361.258C356.863 362.173 356.109 362.874 355.224 362.874C354.624 362.874 354.165 362.563 353.936 362.087L353.833 364.042H353.524L353.752 359.712H354.062L354.025 360.429C354.303 359.953 354.796 359.643 355.396 359.643C356.278 359.644 356.959 360.342 356.911 361.258ZM356.602 361.258C356.64 360.521 356.097 359.941 355.36 359.941C354.623 359.941 354.018 360.523 353.979 361.258C353.941 361.995 354.485 362.576 355.221 362.576C355.958 362.577 356.564 361.995 356.602 361.258Z" fill="white"/>
<path d="M360.574 361.27C360.572 361.32 360.563 361.369 360.561 361.419H357.759C357.796 362.117 358.304 362.577 359.01 362.577C359.516 362.577 359.913 362.342 360.11 362.013L360.373 362.174C360.097 362.595 359.601 362.874 358.987 362.874C358.034 362.874 357.397 362.193 357.445 361.258C357.493 360.35 358.185 359.643 359.132 359.643C360.073 359.644 360.619 360.423 360.574 361.27ZM357.775 361.116H360.262C360.233 360.362 359.723 359.941 359.117 359.941C358.411 359.941 357.873 360.429 357.775 361.116Z" fill="white"/>
<path d="M364.414 359.712L364.252 362.804H363.937L363.974 362.105C363.689 362.568 363.197 362.872 362.603 362.872C361.725 362.872 361.038 362.173 361.086 361.257C361.135 360.341 361.895 359.641 362.772 359.641C363.366 359.641 363.827 359.944 364.063 360.409L364.1 359.711L364.414 359.712ZM364.018 361.258C364.056 360.521 363.518 359.941 362.782 359.941C362.046 359.941 361.44 360.523 361.402 361.258C361.363 361.995 361.908 362.576 362.645 362.576C363.379 362.577 363.979 361.995 364.018 361.258Z" fill="white"/>
<path d="M367.15 362.804L365.59 361.282L365.51 362.804H365.201L365.428 358.475H365.737L365.599 361.116L367.238 359.712H367.67L365.929 361.196L367.57 362.804H367.15Z" fill="white"/>
<path d="M370.877 361.27C370.874 361.32 370.865 361.369 370.863 361.419H368.061C368.099 362.117 368.606 362.577 369.312 362.577C369.819 362.577 370.215 362.342 370.412 362.013L370.675 362.174C370.399 362.595 369.903 362.874 369.29 362.874C368.337 362.874 367.699 362.193 367.748 361.258C367.795 360.35 368.489 359.643 369.435 359.643C370.375 359.644 370.921 360.423 370.877 361.27ZM368.077 361.116H370.564C370.535 360.362 370.026 359.941 369.419 359.941C368.714 359.941 368.175 360.429 368.077 361.116Z" fill="white"/>
<path d="M373.024 359.669L373.007 359.965C372.476 359.965 371.958 360.293 371.916 361.084L371.826 362.804H371.517L371.679 359.712H371.988L371.956 360.318C372.192 359.829 372.603 359.669 373.024 359.669Z" fill="white"/>
<g opacity="0.6">
<path d="M401.882 362.804H401.554L401.756 358.957L400.014 361.617H399.958L398.495 358.957L398.294 362.804H397.966L398.193 358.475H398.601L400.014 361.034L401.694 358.475H402.108L401.882 362.804Z" fill="white"/>
<path d="M405.59 359.712L405.428 362.804H405.118L405.149 362.216C404.89 362.675 404.484 362.872 404.006 362.872C403.271 362.872 402.832 362.383 402.872 361.635L402.973 359.711H403.288L403.187 361.635C403.157 362.204 403.465 362.576 404.047 362.576C404.653 362.576 405.15 362.18 405.194 361.345L405.28 359.712H405.59Z" fill="white"/>
<path d="M407.184 360.015L407.079 362.024C407.051 362.568 407.341 362.582 407.974 362.526L407.959 362.804C407.143 362.928 406.726 362.73 406.763 362.024L406.868 360.015H406.188L406.204 359.712H406.884L406.925 358.938L407.245 358.845L407.199 359.712H408.121L408.105 360.015H407.184Z" fill="white"/>
<path d="M411.515 361.27C411.513 361.32 411.504 361.369 411.501 361.419H408.699C408.736 362.117 409.244 362.577 409.95 362.577C410.457 362.577 410.854 362.342 411.05 362.013L411.314 362.174C411.038 362.595 410.541 362.874 409.928 362.874C408.975 362.874 408.337 362.193 408.387 361.258C408.435 360.35 409.127 359.643 410.074 359.643C411.013 359.644 411.56 360.423 411.515 361.27ZM408.714 361.116H411.201C411.173 360.362 410.662 359.941 410.057 359.941C409.351 359.941 408.812 360.429 408.714 361.116Z" fill="white"/>
</g>
<path d="M440.091 362.804L438.032 360.67L437.921 362.804H437.593L437.821 358.475H438.148L438.042 360.491L440.257 358.475H440.696L438.395 360.577L440.531 362.804H440.091Z" fill="white"/>
<path d="M443.787 361.27C443.784 361.32 443.776 361.369 443.773 361.419H440.971C441.008 362.117 441.516 362.577 442.222 362.577C442.729 362.577 443.125 362.342 443.322 362.013L443.585 362.174C443.31 362.595 442.813 362.874 442.201 362.874C441.248 362.874 440.609 362.193 440.658 361.258C440.705 360.35 441.399 359.643 442.344 359.643C443.285 359.644 443.831 360.423 443.787 361.27ZM440.987 361.116H443.474C443.446 360.362 442.936 359.941 442.33 359.941C441.624 359.941 441.085 360.429 440.987 361.116Z" fill="white"/>
<path d="M447.063 359.712L445.551 363.089C445.285 363.682 444.805 364.085 444.276 364.042L444.291 363.751C444.704 363.788 445.035 363.479 445.25 363.028L445.327 362.86L444.069 359.712H444.404L445.509 362.464L446.73 359.712H447.063Z" fill="white"/>
<path d="M450.778 361.258C450.73 362.173 449.976 362.874 449.092 362.874C448.491 362.874 448.031 362.563 447.803 362.087L447.7 364.042H447.391L447.619 359.712H447.928L447.89 360.429C448.169 359.953 448.662 359.643 449.261 359.643C450.145 359.644 450.826 360.342 450.778 361.258ZM450.469 361.258C450.507 360.521 449.962 359.941 449.227 359.941C448.49 359.941 447.884 360.523 447.846 361.258C447.808 361.995 448.351 362.576 449.088 362.576C449.824 362.577 450.43 361.995 450.469 361.258Z" fill="white"/>
<path d="M454.64 359.712L454.478 362.804H454.163L454.2 362.105C453.916 362.568 453.424 362.872 452.829 362.872C451.952 362.872 451.265 362.173 451.313 361.257C451.361 360.341 452.121 359.641 452.999 359.641C453.592 359.641 454.053 359.944 454.289 360.409L454.326 359.711L454.64 359.712ZM454.245 361.258C454.283 360.521 453.744 359.941 453.009 359.941C452.272 359.941 451.666 360.523 451.628 361.258C451.59 361.995 452.135 362.576 452.872 362.576C453.606 362.577 454.205 361.995 454.245 361.258Z" fill="white"/>
<path d="M458.692 358.475L458.466 362.804H458.157L458.194 362.087C457.914 362.563 457.422 362.874 456.823 362.874C455.938 362.874 455.257 362.174 455.305 361.258C455.353 360.342 456.107 359.643 456.992 359.643C457.592 359.643 458.052 359.953 458.281 360.429L458.384 358.475H458.692ZM458.237 361.258C458.275 360.521 457.73 359.941 456.994 359.941C456.258 359.941 455.652 360.523 455.614 361.258C455.576 361.995 456.12 362.576 456.856 362.576C457.592 362.577 458.199 361.995 458.237 361.258Z" fill="white"/>
<path d="M362.214 300.083C361.446 300.083 360.788 300.71 360.747 301.478C360.707 302.247 361.3 302.872 362.069 302.872C362.839 302.872 363.496 302.247 363.537 301.478C363.577 300.71 362.983 300.083 362.214 300.083Z" fill="white"/>
<path d="M367.27 300.083C366.5 300.083 365.842 300.71 365.801 301.478C365.761 302.247 366.354 302.872 367.123 302.872C367.891 302.872 368.549 302.247 368.59 301.478C368.632 300.71 368.038 300.083 367.27 300.083Z" fill="white"/>
<path d="M370.142 297.43H359.621C359.039 297.43 358.542 297.902 358.512 298.484L358.198 304.471C358.167 305.053 358.614 305.526 359.196 305.526H369.717C370.299 305.526 370.796 305.053 370.827 304.471L371.141 298.484C371.172 297.902 370.724 297.43 370.142 297.43ZM367.082 303.669H362.025C360.818 303.669 359.886 302.685 359.95 301.479C360.013 300.271 361.048 299.288 362.255 299.288C363.463 299.288 364.395 300.271 364.332 301.479C364.303 302.01 364.08 302.494 363.743 302.873H365.447C365.15 302.494 364.977 302.01 365.004 301.479C365.067 300.271 366.102 299.288 367.311 299.288C368.518 299.288 369.45 300.271 369.386 301.479C369.324 302.685 368.291 303.669 367.082 303.669Z" fill="white"/>
<path d="M454.891 299.348L450.623 296.445L450.4 300.704L447.893 299L447.397 299.697L450.016 301.478L447.211 303.259L447.632 303.956L450.318 302.25L450.094 306.511L454.666 303.607L451.535 301.478L454.891 299.348ZM451.376 297.991L453.371 299.348L451.234 300.704L451.376 297.991ZM451.011 304.964L451.153 302.251L453.148 303.609L451.011 304.964Z" fill="white"/>
<g opacity="0.6">
<path d="M405.439 305.728H406.675L407.12 297.227H405.884L405.439 305.728Z" fill="white"/>
<path d="M410.58 297.227L410.135 305.728H411.371L411.816 297.227H410.58Z" fill="white"/>
</g>
<path d="M361.781 346L359.13 348.255H356.832L356.659 351.568H358.957L361.372 353.824C361.579 354.018 361.908 353.841 361.924 353.524L362.303 346.299C362.319 345.984 362.01 345.806 361.781 346Z" fill="white"/>
<path d="M363.653 347.721C364.768 349.002 364.674 350.819 363.423 352.102C362.997 352.539 363.616 353.197 364.045 352.757C365.661 351.099 365.785 348.724 364.343 347.065C363.961 346.628 363.273 347.284 363.653 347.721Z" fill="white"/>
<path d="M364.999 345.358C367.317 348.022 367.123 351.799 364.522 354.466C364.096 354.904 364.715 355.561 365.144 355.121C368.104 352.085 368.332 347.739 365.69 344.702C365.307 344.263 364.619 344.919 364.999 345.358Z" fill="white"/>
<g opacity="0.6">
<path d="M409.803 351.557C410.115 350.98 410.325 350.337 410.398 349.656C410.474 348.94 409.361 348.943 409.285 349.656C409.243 350.05 409.139 350.396 409.01 350.719L409.803 351.557Z" fill="white"/>
<path d="M408.52 351.588C406.751 353.799 402.623 353.161 402.617 349.656C402.616 348.944 401.503 348.939 401.505 349.656C401.507 351.579 402.603 353.257 404.325 353.854L404.252 355.239H407.064L407.137 353.847C407.98 353.564 408.702 353.039 409.258 352.365L408.52 351.588Z" fill="white"/>
<path d="M404.833 346.311C405.106 345.843 405.602 345.511 406.168 345.511C406.985 345.511 407.615 346.176 407.572 346.993L407.462 349.086L408.272 349.94C408.324 349.763 408.363 349.583 408.373 349.392L408.499 346.995C408.568 345.666 407.545 344.586 406.216 344.586C405.396 344.586 404.656 345.005 404.19 345.635L404.833 346.311Z" fill="white"/>
<path d="M407.804 350.832L407.161 350.154C407.156 350.163 407.152 350.171 407.146 350.18L404.582 347.474L404.585 347.436L403.753 346.558C403.75 346.569 403.745 346.578 403.743 346.589L402.376 345.147L401.686 345.803L403.635 347.86L403.555 349.394C403.486 350.721 404.509 351.801 405.838 351.801C406.277 351.801 406.69 351.674 407.055 351.469L409.815 354.382L410.505 353.726L407.786 350.857C407.795 350.848 407.798 350.84 407.804 350.832ZM405.887 350.873C405.07 350.873 404.44 350.209 404.483 349.392L404.515 348.786L406.397 350.772C406.235 350.83 406.065 350.873 405.887 350.873Z" fill="white"/>
</g>
<path d="M446.063 344.85C445.678 344.85 445.35 345.162 445.331 345.547C445.311 345.933 445.606 346.244 445.991 346.244C446.375 346.244 446.704 345.933 446.724 345.547C446.745 345.162 446.448 344.85 446.063 344.85Z" fill="white"/>
<path d="M445.912 347.76C445.526 347.76 445.198 348.071 445.179 348.457C445.159 348.842 445.454 349.154 445.839 349.154C446.223 349.154 446.552 348.842 446.572 348.457C446.591 348.072 446.296 347.76 445.912 347.76Z" fill="white"/>
<path d="M445.758 350.671C445.373 350.671 445.045 350.982 445.025 351.368C445.006 351.753 445.301 352.065 445.685 352.065C446.07 352.065 446.399 351.753 446.418 351.368C446.439 350.982 446.143 350.671 445.758 350.671Z" fill="white"/>
<path d="M448.769 344.85C448.385 344.85 448.056 345.162 448.036 345.547C448.017 345.933 448.312 346.244 448.696 346.244C449.081 346.244 449.41 345.933 449.429 345.547C449.449 345.162 449.154 344.85 448.769 344.85Z" fill="white"/>
<path d="M448.616 347.76C448.232 347.76 447.903 348.071 447.883 348.457C447.863 348.842 448.159 349.154 448.543 349.154C448.927 349.154 449.256 348.842 449.276 348.457C449.297 348.072 449.002 347.76 448.616 347.76Z" fill="white"/>
<path d="M448.464 350.671C448.079 350.671 447.751 350.982 447.731 351.368C447.711 351.753 448.007 352.065 448.391 352.065C448.775 352.065 449.104 351.753 449.124 351.368C449.144 350.982 448.848 350.671 448.464 350.671Z" fill="white"/>
<path d="M448.311 353.581C447.926 353.581 447.597 353.893 447.578 354.278C447.558 354.663 447.853 354.975 448.238 354.975C448.622 354.975 448.951 354.664 448.971 354.278C448.992 353.893 448.696 353.581 448.311 353.581Z" fill="white"/>
<path d="M451.402 346.243C451.786 346.243 452.115 345.932 452.135 345.546C452.155 345.16 451.859 344.849 451.475 344.849C451.089 344.849 450.762 345.16 450.741 345.546C450.721 345.932 451.016 346.243 451.402 346.243Z" fill="white"/>
<path d="M451.322 347.76C450.937 347.76 450.608 348.071 450.589 348.457C450.569 348.841 450.864 349.154 451.249 349.154C451.633 349.154 451.962 348.842 451.982 348.457C452.001 348.071 451.706 347.76 451.322 347.76Z" fill="white"/>
<path d="M451.169 350.671C450.785 350.671 450.456 350.982 450.435 351.368C450.415 351.752 450.711 352.065 451.097 352.065C451.481 352.065 451.81 351.753 451.829 351.368C451.849 350.982 451.554 350.671 451.169 350.671Z" fill="white"/>
<g opacity="0.1">
<path d="M365.606 445.854H412.051L395.597 133.603H358.217C354.811 133.603 351.662 135.031 349.347 137.311L365.606 445.854Z" fill="white"/>
<path d="M420.388 445.854H430.836L414.381 133.604H403.933L420.388 445.854Z" fill="white"/>
</g>
<path d="M249.887 456.084H275.225L261.905 347.598C261.341 343.005 257.161 339.282 252.568 339.282H243.86H142.009L158.217 456.084H249.887Z" fill="#407BFF"/>
<path opacity="0.1" d="M249.887 456.084H275.225L261.905 347.598C261.341 343.005 257.161 339.282 252.568 339.282H243.86H142.009L158.217 456.084H249.887Z" fill="white"/>
<path d="M169.526 456.084H144.188L130.868 347.598C130.304 343.005 133.57 339.282 138.161 339.282H146.869C151.461 339.282 155.641 343.005 156.206 347.598L169.526 456.084Z" fill="#407BFF"/>
<path opacity="0.2" d="M169.526 456.084H144.188L130.868 347.598C130.304 343.005 133.57 339.282 138.161 339.282H146.869C151.461 339.282 155.641 343.005 156.206 347.598L169.526 456.084Z" fill="black"/>
<path d="M184.463 470.747L179.873 418.274C179.667 415.93 177.857 414.046 175.523 413.749L173.636 413.508C170.505 413.108 168.076 410.581 167.801 407.438L166.964 397.87C166.62 393.948 169.711 390.576 173.648 390.576H131.303C127.366 390.576 124.276 393.949 124.618 397.87L125.455 407.438C125.73 410.582 128.16 413.108 131.289 413.508L133.178 413.749C135.511 414.046 137.322 415.93 137.527 418.274L142.118 470.747C142.453 474.572 145.655 477.508 149.495 477.508H191.841C188.002 477.508 184.798 474.572 184.463 470.747Z" fill="#407BFF"/>
<g opacity="0.3">
<path d="M184.463 470.747L179.873 418.274C179.667 415.93 177.857 414.046 175.523 413.749L173.636 413.508C170.505 413.108 168.076 410.581 167.801 407.438L166.964 397.87C166.62 393.948 169.711 390.576 173.648 390.576H131.303C127.366 390.576 124.276 393.949 124.618 397.87L125.455 407.438C125.73 410.582 128.16 413.108 131.289 413.508L133.178 413.749C135.511 414.046 137.322 415.93 137.527 418.274L142.118 470.747C142.453 474.572 145.655 477.508 149.495 477.508H191.841C188.002 477.508 184.798 474.572 184.463 470.747Z" fill="black"/>
</g>
<path d="M300.994 405.139C301.715 396.898 308.616 390.576 316.887 390.576H296.398H280.022C271.751 390.576 264.85 396.898 264.13 405.139L260.491 446.734H297.356L300.994 405.139Z" fill="#407BFF"/>
<path opacity="0.3" d="M300.994 405.139C301.715 396.898 308.616 390.576 316.887 390.576H296.398H280.022C271.751 390.576 264.85 396.898 264.13 405.139L260.491 446.734H297.356L300.994 405.139Z" fill="black"/>
<path d="M200.121 501.404H198.227C196.361 501.404 194.848 501.128 194.848 499.261V477.509H203.5V499.261C203.5 501.128 201.987 501.404 200.121 501.404Z" fill="#263238"/>
<path d="M309.365 501.404H307.472C305.606 501.404 304.093 501.128 304.093 499.261V477.509H312.745V499.261C312.744 501.128 311.231 501.404 309.365 501.404Z" fill="#263238"/>
<path d="M156.931 501.404H155.038C153.171 501.404 151.658 501.128 151.658 499.261V477.509H160.31V499.261C160.312 501.128 158.798 501.404 156.931 501.404Z" fill="#263238"/>
<path d="M266.175 501.404H264.282C262.415 501.404 260.902 501.128 260.902 499.261V477.509H269.554V499.261C269.554 501.128 268.041 501.404 266.175 501.404Z" fill="#263238"/>
<path d="M216.787 421.785H201.553C197.85 421.785 194.848 424.787 194.848 428.49V440.028C194.848 443.731 197.85 446.734 201.553 446.734H216.787V421.785Z" fill="#407BFF"/>
<path opacity="0.3" d="M216.787 421.785H201.553C197.85 421.785 194.848 424.787 194.848 428.49V440.028C194.848 443.731 197.85 446.734 201.553 446.734H216.787V421.785Z" fill="black"/>
<path d="M290.65 446.734H217.311C213.608 446.734 210.606 443.731 210.606 440.028V428.49C210.606 424.787 213.608 421.785 217.311 421.785H290.65C294.353 421.785 297.356 424.787 297.356 428.49V440.028C297.356 443.731 294.353 446.734 290.65 446.734Z" fill="#407BFF"/>
<path d="M333.263 390.576H316.887C308.615 390.576 301.715 396.898 300.994 405.139L297.356 446.734H209.554L205.915 405.139C205.194 396.898 198.295 390.576 190.023 390.576H173.647C169.71 390.576 166.62 393.949 166.962 397.87L167.799 407.438C168.075 410.582 170.504 413.108 173.634 413.508L175.522 413.749C177.855 414.046 179.666 415.93 179.871 418.274L184.462 470.747C184.797 474.572 188 477.508 191.839 477.508H315.066C318.906 477.508 322.11 474.572 322.444 470.747L327.034 418.274C327.24 415.93 329.05 414.046 331.384 413.749L333.271 413.508C336.402 413.108 338.831 410.581 339.106 407.436L339.943 397.87C340.289 393.949 337.199 390.576 333.263 390.576Z" fill="#407BFF"/>
<path opacity="0.1" d="M333.263 390.576H316.887C308.615 390.576 301.715 396.898 300.994 405.139L297.356 446.734H209.554L205.915 405.139C205.194 396.898 198.295 390.576 190.023 390.576H173.647C169.71 390.576 166.62 393.949 166.962 397.87L167.799 407.438C168.075 410.582 170.504 413.108 173.634 413.508L175.522 413.749C177.855 414.046 179.666 415.93 179.871 418.274L184.462 470.747C184.797 474.572 188 477.508 191.839 477.508H315.066C318.906 477.508 322.11 474.572 322.444 470.747L327.034 418.274C327.24 415.93 329.05 414.046 331.384 413.749L333.271 413.508C336.402 413.108 338.831 410.581 339.106 407.436L339.943 397.87C340.289 393.949 337.199 390.576 333.263 390.576Z" fill="black"/>
<path d="M337.032 491.355L348.132 487.283L350.666 496.797L340.818 499.964L337.032 491.355Z" fill="#FAB27B"/>
<path d="M353.527 497.025C353.407 497.038 353.292 496.978 353.233 496.873C353.175 496.767 353.191 496.636 353.272 496.546C353.416 496.386 356.69 492.781 358.786 492.683C359.175 492.66 359.559 492.788 359.854 493.043C360.227 493.31 360.39 493.783 360.262 494.223C359.987 494.993 358.592 495.739 357.159 496.205C355.974 496.584 354.759 496.858 353.527 497.025ZM354.291 496.371C356.522 495.939 359.424 494.975 359.714 494.05C359.761 493.932 359.78 493.745 359.466 493.471C359.289 493.305 359.046 493.228 358.806 493.263C358.62 493.27 358.437 493.305 358.262 493.365C356.761 494.108 355.413 495.128 354.291 496.371Z" fill="#407BFF"/>
<path d="M353.376 497.056C353.276 497.029 353.198 496.95 353.173 496.849C353.142 496.699 352.438 493.49 353.513 491.806C353.82 491.312 354.313 490.965 354.881 490.844C355.658 490.675 356.016 490.979 356.146 491.282C356.813 492.498 354.857 495.899 353.678 496.959C353.648 496.987 353.608 497.004 353.568 497.005C353.512 497.048 353.444 497.065 353.376 497.056ZM354.867 491.422C354.519 491.531 354.224 491.762 354.035 492.073C353.498 493.346 353.365 494.753 353.654 496.104C354.807 494.794 355.988 492.248 355.663 491.489C355.619 491.426 355.523 491.238 355.019 491.357L354.867 491.422Z" fill="#407BFF"/>
<path d="M351.824 495.794L339.241 499.889C338.767 500.044 338.462 500.506 338.509 501.003L339.566 511.978C339.653 512.952 340.513 513.672 341.487 513.585C341.612 513.574 341.735 513.549 341.855 513.512C346.365 511.957 350.317 510.396 355.967 508.566C362.631 506.399 361.2 507.746 369.071 505.309C373.812 503.836 372.93 498.188 370.842 498.575C361.306 500.403 359.455 497.947 354.854 495.818C353.882 495.439 352.804 495.431 351.824 495.794Z" fill="#263238"/>
<path opacity="0.1" d="M348.132 487.283L337.032 491.355L338.624 494.976L349.202 491.304L348.132 487.283Z" fill="black"/>
<path d="M213.011 260.363C213.011 260.363 212.206 245.59 233.739 245.131C255.271 244.672 252.821 261.722 251.129 266.991C249.437 272.259 257.448 279.252 257.448 279.252C257.448 279.252 252.41 279.346 250.749 276.669C249.087 273.993 255.841 284.069 254.354 290.941C252.867 297.814 250.233 304.571 253.898 310.068C253.898 310.068 247.3 306.862 247.565 300.562C247.565 300.562 248.052 305.756 242.847 304.57C237.642 303.386 222.836 298.347 213.009 301.186C208.158 302.588 206.366 300.054 206.03 296.723C205.685 293.305 204.531 288.325 204.753 295.179C204.785 296.158 204.889 297.257 205.086 298.49C205.086 298.49 196.456 292.361 202.59 284.871C204.437 282.615 209.348 279.717 209.348 275.365C209.346 271.014 206.711 265.403 213.011 260.363Z" fill="#263238"/>
<path d="M214.799 261.56C214.799 261.56 210.382 257.916 213.295 250.808C213.295 250.808 205.787 260.501 215.974 263.411L214.799 261.56Z" fill="#263238"/>
<path d="M300.951 345.903C300.951 345.903 270.408 367.407 262.675 360.089C254.941 352.77 249.102 333.469 249.102 333.469L262.328 327.042L269.564 345.023C270.278 346.798 272.282 347.673 274.069 346.991L297.134 338.909C297.134 338.909 297.223 334.499 299.312 330.907C300.605 328.686 303.425 327.541 305.171 325.653C309.738 320.709 308.734 327.961 308.734 327.961L309.91 336.799C310.01 337.55 309.89 338.314 309.565 338.999L307.938 342.425C307.466 343.42 306.597 344.17 305.544 344.493L300.951 345.903Z" fill="#FAB27B"/>
<path d="M247.373 332.509C247.373 332.509 240.664 315.493 246.314 307.309C251.962 299.127 264.146 323.516 264.146 323.516L265.183 324.045L266.888 327.209C266.888 327.209 254.616 331.854 248.722 336.958L246.872 333.044L247.373 332.509Z" fill="#263238"/>
<g opacity="0.2">
<path d="M247.373 332.509C247.373 332.509 240.664 315.493 246.314 307.309C251.962 299.127 264.146 323.516 264.146 323.516L265.183 324.045L266.888 327.209C266.888 327.209 254.616 331.854 248.722 336.958L246.872 333.044L247.373 332.509Z" fill="white"/>
</g>
<path d="M239.402 391.716C239.402 391.716 311.053 382.405 321.113 397.378C331.173 412.349 349.174 487.978 349.174 487.978L334.554 493.686C334.554 493.686 310.229 448.007 302.884 419.573L285.132 418.826L236.453 422.475C236.455 422.475 216.767 399.894 239.402 391.716Z" fill="#407BFF"/>
<path opacity="0.4" d="M239.402 391.716C239.402 391.716 311.053 382.405 321.113 397.378C331.173 412.349 349.174 487.978 349.174 487.978L334.554 493.686C334.554 493.686 310.229 448.007 302.884 419.573L285.132 418.826L236.453 422.475C236.455 422.475 216.767 399.894 239.402 391.716Z" fill="white"/>
<path d="M192.74 321.182C193.01 328.448 198.806 341.816 201.096 354.678C204.119 371.664 203.785 385.295 203.785 385.295C203.785 385.295 242.991 395.273 260.915 385.183C260.915 385.183 258.355 372.74 257.651 357.787C256.705 337.659 257.113 312.984 252.641 307.99C244.848 299.286 227.669 298.537 211.123 299.697C194.578 300.857 192.477 314.118 192.74 321.182Z" fill="#263238"/>
<g opacity="0.1">
<path d="M192.74 321.182C193.01 328.448 198.806 341.816 201.096 354.678C204.119 371.664 203.785 385.295 203.785 385.295C203.785 385.295 242.991 395.273 260.915 385.183C260.915 385.183 258.355 372.74 257.651 357.787C256.705 337.659 257.113 312.984 252.641 307.99C244.848 299.286 227.669 298.537 211.123 299.697C194.578 300.857 192.477 314.118 192.74 321.182Z" fill="white"/>
</g>
<path d="M330.715 489.597L349.022 482.376C349.022 482.376 352.615 483.423 351.23 487.822L332.99 494.472C332.99 494.472 331.409 494.369 330.715 489.597Z" fill="#407BFF"/>
<path d="M187.982 325.91C187.982 325.91 181.084 346.458 183.305 357.686C185.526 368.914 226.761 369.851 226.761 369.851C226.761 369.851 232.584 371.637 235.679 371.077C237.768 370.699 241.403 371.345 243.545 371.805C244.627 372.037 245.744 371.666 246.483 370.843L248.362 368.753C249.076 367.958 249.327 366.86 249.038 365.831C248.237 362.984 246.228 357.583 242.549 357.759C237.559 357.996 227.77 362.583 227.77 362.583L201.443 353.303C199.453 352.789 198.242 350.774 198.72 348.774L203.573 328.513L187.982 325.91Z" fill="#FAB27B"/>
<path d="M184.962 325.164C184.962 325.164 190.833 304.669 201.863 301.111C212.894 297.552 206.853 328.75 206.853 328.75L207.437 329.976L206.768 334.112C206.768 334.112 192.124 329.698 183.05 330.237L184.118 325.305L184.962 325.164Z" fill="#263238"/>
<g opacity="0.2">
<path d="M184.962 325.164C184.962 325.164 190.833 304.669 201.863 301.111C212.894 297.552 206.853 328.75 206.853 328.75L207.437 329.976L206.768 334.112C206.768 334.112 192.124 329.698 183.05 330.237L184.118 325.305L184.962 325.164Z" fill="white"/>
</g>
<path d="M240.856 301.149L240.112 300.915C233.548 298.691 234.149 294.02 235.662 289.448L225.083 278.657C225.75 284.776 226.455 299.061 221.254 299.164L223.469 301.044L227.203 305.448L236.447 314.796L237.785 314.539L240 312.71L241.779 307.984L240.856 301.149Z" fill="#FAB27B"/>
<path d="M222.575 298.715C222.575 298.715 232.5 306.383 236.578 314.15C236.578 314.15 239.194 310.242 239.308 306.063C239.382 303.343 237.015 300.986 237.014 299.042L241.663 301.003C241.663 301.003 249.273 312.76 245.91 319.368C245.91 319.368 243.58 313.469 237.778 315.831C237.778 315.831 236.265 316.657 235.25 315.499C234.962 315.171 234.562 314.949 234.132 314.877C232.562 314.616 229.048 314.687 226.041 319.427C226.041 319.427 223.931 305.888 218.343 299.207L222.575 298.715Z" fill="white"/>
<path opacity="0.2" d="M229.421 283.106L235.717 289.491C235.333 290.554 235.044 291.648 234.85 292.761C232.325 292.161 228.654 289.535 228.62 286.821C228.667 285.546 228.938 284.287 229.421 283.106Z" fill="black"/>
<path d="M219.699 269.134C222.257 278.912 223.125 283.106 229.121 287.199C238.142 293.362 249.589 288.089 250.012 277.744C250.39 268.433 246.152 254.017 235.695 251.981C228.231 250.488 220.971 255.329 219.478 262.793C219.057 264.896 219.133 267.066 219.699 269.134Z" fill="#FAB27B"/>
<path d="M236.251 268.8C236.407 269.601 236.963 270.169 237.497 270.068C238.031 269.968 238.32 269.234 238.154 268.422C237.987 267.61 237.442 267.054 236.919 267.154C236.396 267.254 236.096 267.988 236.251 268.8Z" fill="#263238"/>
<path d="M245.362 267.009C245.518 267.81 246.074 268.378 246.597 268.278C247.12 268.177 247.42 267.443 247.264 266.631C247.109 265.819 246.552 265.263 246.03 265.363C245.507 265.463 245.195 266.197 245.362 267.009Z" fill="#263238"/>
<path d="M245.807 265.452L247.631 264.518C247.631 264.518 246.93 266.22 245.807 265.452Z" fill="#263238"/>
<path d="M242.203 269.012C243.281 270.71 244.587 272.252 246.085 273.595C245.376 274.355 244.365 274.763 243.326 274.707L242.203 269.012Z" fill="#ED893E"/>
<path d="M230.779 265.674C230.708 265.672 230.64 265.652 230.578 265.619C230.388 265.505 230.327 265.259 230.441 265.069C230.442 265.066 230.445 265.063 230.445 265.063C231.199 263.736 232.552 262.86 234.071 262.715C234.29 262.715 234.47 262.886 234.483 263.105C234.489 263.322 234.321 263.504 234.105 263.516C232.853 263.656 231.744 264.389 231.123 265.485C231.05 265.605 230.919 265.677 230.779 265.674Z" fill="#263238"/>
<path d="M247.887 262.449C247.817 262.446 247.749 262.426 247.687 262.393C246.609 261.751 245.29 261.665 244.138 262.159C243.943 262.264 243.701 262.191 243.596 261.997L243.593 261.992C243.496 261.792 243.575 261.551 243.771 261.447C245.166 260.828 246.772 260.918 248.087 261.692C248.284 261.793 248.362 262.034 248.26 262.231C248.19 262.371 248.044 262.456 247.887 262.449Z" fill="#263238"/>
<path d="M236.696 267.243L238.521 266.309C238.521 266.309 237.82 268.011 236.696 267.243Z" fill="#263238"/>
<path d="M243.68 280.646C244.065 280.555 244.442 280.431 244.806 280.274C244.926 280.23 244.987 280.096 244.944 279.976C244.943 279.974 244.943 279.971 244.942 279.969C244.884 279.851 244.745 279.799 244.624 279.85C242.768 280.66 240.637 280.541 238.882 279.529C238.774 279.455 238.627 279.482 238.553 279.589C238.479 279.697 238.506 279.844 238.613 279.918C240.136 280.835 241.963 281.097 243.68 280.646Z" fill="#263238"/>
<path d="M228.62 255.256C228.62 255.256 231.379 258.157 239.533 260.276L237.206 256.974C237.206 256.974 246.175 261.4 251.903 260.276C251.903 260.276 243.428 243.116 225.676 250.217C225.676 250.217 206.895 267.531 217.202 287.277C217.202 287.277 222.769 290.496 223.927 284.575C223.927 284.575 226.441 288.554 223.927 290.989C223.927 290.989 228.954 286.923 226.818 280.174C224.683 273.425 225.841 270.529 228.622 265.052C231.403 259.574 228.62 255.256 228.62 255.256Z" fill="#263238"/>
<path d="M301.929 497.919L305.412 508.167L315.197 505.094L313.605 493.836L301.929 497.919Z" fill="#FAB27B"/>
<path d="M318.763 505.072C318.643 505.072 318.534 505.001 318.486 504.891C318.439 504.78 318.467 504.651 318.558 504.57C318.717 504.425 322.329 501.158 324.425 501.267C324.814 501.282 325.183 501.448 325.452 501.729C325.797 502.032 325.913 502.519 325.741 502.944C325.393 503.685 323.931 504.288 322.459 504.612C321.242 504.873 320.005 505.026 318.763 505.072ZM319.587 504.496C321.85 504.284 324.833 503.609 325.212 502.718C325.27 502.606 325.308 502.42 325.022 502.118C324.863 501.935 324.628 501.835 324.385 501.847C324.2 501.836 324.015 501.852 323.834 501.895C322.268 502.486 320.827 503.368 319.587 504.496Z" fill="#407BFF"/>
<path d="M318.611 505.088C318.513 505.052 318.444 504.964 318.429 504.861C318.412 504.709 318.026 501.448 319.262 499.877C319.616 499.416 320.141 499.119 320.718 499.055C321.508 498.962 321.834 499.299 321.934 499.615C322.48 500.89 320.198 504.083 318.921 505.022C318.889 505.048 318.848 505.06 318.806 505.058C318.747 505.093 318.676 505.103 318.611 505.088ZM320.647 499.627C320.291 499.701 319.974 499.903 319.755 500.192C319.097 501.407 318.826 502.794 318.98 504.167C320.257 502.977 321.681 500.559 321.433 499.772C321.396 499.705 321.318 499.508 320.805 499.576L320.647 499.627Z" fill="#407BFF"/>
<path d="M317.189 503.68L304.266 506.52C303.779 506.627 303.43 507.058 303.429 507.556L303.404 518.582C303.395 519.56 304.181 520.361 305.158 520.371C305.284 520.372 305.409 520.36 305.532 520.335C310.173 519.23 314.259 518.064 320.061 516.798C326.906 515.296 325.35 516.496 333.421 514.842C338.283 513.841 337.959 508.134 335.844 508.315C326.175 509.199 324.573 506.572 320.204 504.002C319.272 503.529 318.199 503.414 317.189 503.68Z" fill="#263238"/>
<path opacity="0.1" d="M313.605 493.836L301.929 497.919L303.501 502.543L314.285 498.649L313.605 493.836Z" fill="black"/>
<path d="M205.304 385.494C205.304 385.494 201.901 422.722 219.971 423.734C238.041 424.746 277.089 414.968 277.089 414.968C277.089 414.968 278.843 445.81 288.314 469.246C297.786 492.682 298.88 497.424 298.88 497.424L314.817 492.015C314.817 492.015 308.749 408.702 297.074 394.764C282.752 377.666 216.42 387.759 216.42 387.759L205.304 385.494Z" fill="#407BFF"/>
<path opacity="0.5" d="M205.304 385.494C205.304 385.494 201.901 422.722 219.971 423.734C238.041 424.746 277.089 414.968 277.089 414.968C277.089 414.968 278.843 445.81 288.314 469.246C297.786 492.682 298.88 497.424 298.88 497.424L314.817 492.015C314.817 492.015 308.749 408.702 297.074 394.764C282.752 377.666 216.42 387.759 216.42 387.759L205.304 385.494Z" fill="white"/>
<path d="M296.043 496.595L316.093 489.386C316.093 489.386 318.599 491.568 317.311 494.494L298 501.671C298 501.671 295.738 501.076 296.043 496.595Z" fill="#407BFF"/>
<path d="M220.134 276.185C221.045 277.915 222.605 279.211 224.472 279.79C226.953 280.535 228.243 278.332 227.598 275.963C227.02 273.838 225.029 270.879 222.515 271.169C220.69 271.434 219.428 273.129 219.695 274.953C219.758 275.389 219.908 275.808 220.134 276.185Z" fill="#FAB27B"/>
<path d="M298.352 315.505L306.718 316.993C307.407 317.116 307.808 317.79 307.613 318.5L302.343 337.679C302.147 338.388 301.431 338.864 300.742 338.742L292.376 337.254C291.687 337.131 291.285 336.457 291.481 335.747L296.751 316.568C296.946 315.859 297.663 315.383 298.352 315.505Z" fill="#407BFF"/>
<path opacity="0.5" d="M298.352 315.505L306.718 316.993C307.407 317.116 307.808 317.79 307.613 318.5L302.343 337.679C302.147 338.388 301.431 338.864 300.742 338.742L292.376 337.254C291.687 337.131 291.285 336.457 291.481 335.747L296.751 316.568C296.946 315.859 297.663 315.383 298.352 315.505Z" fill="white"/>
<path d="M292.375 337.254L300.742 338.742C301.001 338.789 301.257 338.727 301.496 338.623L293.608 337.22C292.918 337.098 292.518 336.423 292.713 335.714L297.983 316.535C298.104 316.093 298.437 315.763 298.83 315.59L298.351 315.505C297.663 315.383 296.946 315.859 296.751 316.568L291.481 335.747C291.287 336.457 291.687 337.131 292.375 337.254Z" fill="#407BFF"/>
<path d="M300.302 317.317C300.271 317.72 299.921 318.056 299.521 318.067C299.121 318.078 298.821 317.759 298.852 317.357C298.883 316.954 299.233 316.616 299.633 316.606C300.034 316.595 300.333 316.913 300.302 317.317Z" fill="#263238"/>
<path d="M263.401 376.125C248.494 376.125 245.716 348.634 244.378 335.406C244.179 333.443 244.009 331.749 243.837 330.573C242.532 321.599 236.222 307.582 232.368 300.938C228.405 294.104 224.102 281.063 224.058 280.932L224.47 280.797C224.513 280.927 228.801 293.926 232.741 300.721C236.612 307.397 242.952 321.482 244.264 330.513C244.436 331.699 244.608 333.397 244.807 335.365C246.132 348.465 248.886 375.695 263.4 375.695C263.431 375.695 263.462 375.695 263.493 375.695C280.195 375.56 293.772 337.857 293.908 337.475L294.316 337.62C294.282 337.715 290.853 347.304 285.382 356.785C278.011 369.562 270.648 376.069 263.495 376.126C263.466 376.123 263.432 376.125 263.401 376.125Z" fill="#407BFF"/>
<path d="M224.517 276.466C224.764 277.222 225.527 277.653 224.771 277.9C224.014 278.147 223.2 277.735 222.952 276.978C222.705 276.221 223.117 275.407 223.873 275.16C224.631 274.912 224.27 275.71 224.517 276.466Z" fill="white"/>
<path d="M222.927 276.651C222.927 276.651 222.486 276.698 224.078 281.565L224.715 281.357C224.715 281.357 223.44 277.828 224.329 277.441C224.329 277.441 223.772 276.663 222.927 276.651Z" fill="white"/>
<path d="M241.178 297.373C242.181 293.989 242.378 290.998 242.323 288.841C242.181 288.899 242.037 288.951 241.893 289.004C241.935 291.11 241.729 293.991 240.763 297.251C238.753 304.035 243.185 327.095 243.376 328.071L243.801 327.99C243.754 327.75 239.197 304.057 241.178 297.373Z" fill="#407BFF"/>
<path d="M292.91 341.777L294.544 337.55L293.827 337.341L292.205 341.518L292.91 341.777Z" fill="#407BFF"/>
<path opacity="0.3" d="M292.91 341.777L294.544 337.55L293.827 337.341L292.205 341.518L292.91 341.777Z" fill="black"/>
<path d="M245.076 385.113H284.767L303.26 351.842H281.575L268.476 375.007L263.1 384.429L246.63 383.918L245.076 385.113Z" fill="#407BFF"/>
<path opacity="0.6" d="M245.076 385.113H284.767L303.26 351.842H281.575L268.476 375.007L263.1 384.429L246.63 383.918L245.076 385.113Z" fill="white"/>
<path d="M280.982 351.842L262.799 383.36H224.346V384.157C224.346 384.685 224.774 385.114 225.302 385.114H264.035L282.528 351.843H280.982V351.842Z" fill="#407BFF"/>
<path d="M278.472 204.097H233.95C231.911 204.097 230.17 205.751 230.064 207.79L228.989 228.29C228.882 230.33 230.448 231.984 232.488 231.984H247.528L254.314 240.256L261.969 231.984H277.009C279.048 231.984 280.788 230.33 280.895 228.29L281.969 207.79C282.079 205.75 280.511 204.097 278.472 204.097Z" fill="#407BFF"/>
<path opacity="0.7" d="M278.472 204.097H233.95C231.911 204.097 230.17 205.751 230.064 207.79L228.989 228.29C228.882 230.33 230.448 231.984 232.488 231.984H247.528L254.314 240.256L261.969 231.984H277.009C279.048 231.984 280.788 230.33 280.895 228.29L281.969 207.79C282.079 205.75 280.511 204.097 278.472 204.097Z" fill="white"/>
<path d="M246.568 217.914C246.568 217.014 247.314 216.269 248.213 216.269C249.115 216.269 249.859 217.014 249.859 217.914C249.859 218.815 249.113 219.559 248.213 219.559C247.314 219.559 246.568 218.814 246.568 217.914Z" fill="#407BFF"/>
<path d="M253.836 217.914C253.836 217.014 254.581 216.269 255.481 216.269C256.382 216.269 257.126 217.014 257.126 217.914C257.126 218.815 256.381 219.559 255.481 219.559C254.58 219.559 253.836 218.814 253.836 217.914Z" fill="#407BFF"/>
<path d="M261.104 217.914C261.104 217.014 261.849 216.269 262.749 216.269C263.65 216.269 264.394 217.014 264.394 217.914C264.394 218.815 263.65 219.559 262.749 219.559C261.848 219.559 261.104 218.814 261.104 217.914Z" fill="#407BFF"/>
</svg>
