<svg width="59" height="60" viewBox="0 0 59 60" fill="none" xmlns="http://www.w3.org/2000/svg">
<g id="instagram ">
<path id="Vector" d="M42.4158 13.65C41.8462 13.65 41.2894 13.8259 40.8158 14.1556C40.3422 14.4852 39.973 14.9538 39.7551 15.5019C39.5371 16.0501 39.48 16.6533 39.5912 17.2353C39.7023 17.8172 39.9766 18.3518 40.3794 18.7713C40.7821 19.1909 41.2953 19.4766 41.854 19.5924C42.4126 19.7081 42.9917 19.6487 43.518 19.4216C44.0442 19.1946 44.494 18.8101 44.8105 18.3167C45.1269 17.8234 45.2958 17.2433 45.2958 16.65C45.2958 15.8544 44.9924 15.0913 44.4523 14.5287C43.9122 13.9661 43.1797 13.65 42.4158 13.65ZM53.4558 19.7C53.4092 17.6257 53.0362 15.5735 52.3518 13.625C51.7416 11.9578 50.7918 10.4482 49.5678 9.2C48.3794 7.91857 46.9268 6.93544 45.3198 6.325C43.4542 5.5904 41.4819 5.19302 39.4878 5.15C36.9438 5 36.1278 5 29.5998 5C23.0718 5 22.2558 5 19.7118 5.15C17.7178 5.19302 15.7455 5.5904 13.8798 6.325C12.2759 6.94162 10.8245 7.9239 9.63185 9.2C8.40167 10.4379 7.45788 11.9511 6.87185 13.625C6.16664 15.5684 5.78516 17.6229 5.74385 19.7C5.59985 22.35 5.59985 23.2 5.59985 30C5.59985 36.8 5.59985 37.65 5.74385 40.3C5.78516 42.3771 6.16664 44.4316 6.87185 46.375C7.45788 48.0489 8.40167 49.5621 9.63185 50.8C10.8245 52.0761 12.2759 53.0584 13.8798 53.675C15.7455 54.4096 17.7178 54.807 19.7118 54.85C22.2558 55 23.0718 55 29.5998 55C36.1278 55 36.9438 55 39.4878 54.85C41.4819 54.807 43.4542 54.4096 45.3198 53.675C46.9268 53.0646 48.3794 52.0814 49.5678 50.8C50.7972 49.5564 51.7478 48.0455 52.3518 46.375C53.0362 44.4265 53.4092 42.3743 53.4558 40.3C53.4558 37.65 53.5998 36.8 53.5998 30C53.5998 23.2 53.5998 22.35 53.4558 19.7ZM49.1358 40C49.1184 41.5869 48.8424 43.1593 48.3198 44.65C47.9366 45.738 47.3211 46.7211 46.5198 47.525C45.7414 48.3513 44.7996 48.9911 43.7598 49.4C42.3287 49.9444 40.8193 50.2318 39.2958 50.25C36.8958 50.375 36.0078 50.4 29.6958 50.4C23.3838 50.4 22.4958 50.4 20.0958 50.25C18.514 50.2809 16.9389 50.0271 15.4398 49.5C14.4457 49.0702 13.5471 48.432 12.7999 47.625C12.0033 46.8219 11.3955 45.838 11.0239 44.75C10.4379 43.2379 10.1129 41.6299 10.0639 40C10.0639 37.5 9.91985 36.575 9.91985 30C9.91985 23.425 9.91985 22.5 10.0639 20C10.0746 18.3776 10.3589 16.7699 10.9039 15.25C11.3264 14.1948 11.9749 13.2541 12.7999 12.5C13.529 11.6404 14.4301 10.9577 15.4398 10.5C16.9028 9.95011 18.4446 9.6627 19.9998 9.65C22.3998 9.65 23.2878 9.5 29.5998 9.5C35.9118 9.5 36.7998 9.5 39.1998 9.65C40.7233 9.6682 42.2327 9.95562 43.6638 10.5C44.7545 10.9216 45.7333 11.6071 46.5198 12.5C47.3063 13.2679 47.9209 14.2068 48.3198 15.25C48.8532 16.7723 49.1293 18.3794 49.1358 20C49.2558 22.5 49.2798 23.425 49.2798 30C49.2798 36.575 49.2558 37.5 49.1358 40ZM29.5998 17.175C27.1658 17.1799 24.7878 17.9363 22.7662 19.3485C20.7447 20.7608 19.1704 22.7655 18.2422 25.1094C17.314 27.4533 17.0736 30.0312 17.5514 32.5173C18.0291 35.0035 19.2036 37.2863 20.9264 39.0774C22.6492 40.8686 24.8431 42.0875 27.2307 42.5804C29.6183 43.0732 32.0926 42.8178 34.341 41.8463C36.5893 40.8749 38.5107 39.2311 39.8625 37.1226C41.2143 35.0141 41.9358 32.5355 41.9358 30C41.939 28.3128 41.6219 26.6415 41.0028 25.0824C40.3837 23.5233 39.4748 22.107 38.3283 20.9151C37.1819 19.7232 35.8205 18.7792 34.3226 18.1373C32.8246 17.4955 31.2196 17.1684 29.5998 17.175ZM29.5998 38.325C28.0192 38.325 26.474 37.8367 25.1597 36.922C23.8454 36.0072 22.8211 34.707 22.2162 33.1858C21.6113 31.6646 21.453 29.9908 21.7614 28.3759C22.0698 26.761 22.8309 25.2776 23.9486 24.1133C25.0663 22.9491 26.4904 22.1562 28.0407 21.835C29.591 21.5137 31.1979 21.6786 32.6582 22.3087C34.1186 22.9388 35.3668 24.0058 36.2449 25.3749C37.1231 26.7439 37.5918 28.3535 37.5918 30C37.5918 31.0933 37.3851 32.1758 36.9835 33.1858C36.5819 34.1959 35.9932 35.1136 35.251 35.8867C34.5089 36.6597 33.6279 37.2729 32.6582 37.6913C31.6886 38.1097 30.6494 38.325 29.5998 38.325Z" fill="#4A71FB"/>
</g>
</svg>
