<svg width="58" height="60" viewBox="0 0 58 60" fill="none" xmlns="http://www.w3.org/2000/svg">
<g id="linkedin ">
<path id="Vector" d="M49.328 5H8.67204C8.21503 4.99339 7.76124 5.08062 7.3366 5.25671C6.91195 5.4328 6.52477 5.6943 6.19716 6.02628C5.86954 6.35826 5.60792 6.75421 5.42722 7.19152C5.24653 7.62884 5.1503 8.09895 5.14404 8.575V51.425C5.1503 51.9011 5.24653 52.3712 5.42722 52.8085C5.60792 53.2458 5.86954 53.6417 6.19716 53.9737C6.52477 54.3057 6.91195 54.5672 7.3366 54.7433C7.76124 54.9194 8.21503 55.0066 8.67204 55H49.328C49.785 55.0066 50.2388 54.9194 50.6635 54.7433C51.0881 54.5672 51.4753 54.3057 51.8029 53.9737C52.1305 53.6417 52.3921 53.2458 52.5728 52.8085C52.7535 52.3712 52.8498 51.9011 52.856 51.425V8.575C52.8498 8.09895 52.7535 7.62884 52.5728 7.19152C52.3921 6.75421 52.1305 6.35826 51.8029 6.02628C51.4753 5.6943 51.0881 5.4328 50.6635 5.25671C50.2388 5.08062 49.785 4.99339 49.328 5ZM19.616 46.85H12.416V24.35H19.616V46.85ZM16.016 21.2C15.0231 21.2 14.0708 20.7891 13.3686 20.0577C12.6665 19.3263 12.272 18.3343 12.272 17.3C12.272 16.2657 12.6665 15.2737 13.3686 14.5423C14.0708 13.8109 15.0231 13.4 16.016 13.4C16.5433 13.3377 17.0773 13.3921 17.5829 13.5597C18.0886 13.7273 18.5546 14.0042 18.9504 14.3724C19.3462 14.7406 19.6629 15.1917 19.8797 15.6962C20.0966 16.2007 20.2086 16.7472 20.2086 17.3C20.2086 17.8528 20.0966 18.3993 19.8797 18.9038C19.6629 19.4083 19.3462 19.8594 18.9504 20.2276C18.5546 20.5958 18.0886 20.8727 17.5829 21.0403C17.0773 21.2079 16.5433 21.2623 16.016 21.2ZM45.584 46.85H38.384V34.775C38.384 31.75 37.352 29.775 34.736 29.775C33.9264 29.7812 33.1381 30.0457 32.4772 30.5329C31.8164 31.0202 31.3148 31.7067 31.04 32.5C30.8522 33.0876 30.7708 33.7064 30.8 34.325V46.825H23.6C23.6 46.825 23.6 26.375 23.6 24.325H30.8V27.5C31.4541 26.3178 32.4054 25.3438 33.5515 24.683C34.6976 24.0222 35.995 23.6996 37.304 23.75C42.104 23.75 45.584 26.975 45.584 33.9V46.85Z" fill="#4A71FB"/>
</g>
</svg>
