<svg width="47" height="47" viewBox="0 0 47 47" fill="none" xmlns="http://www.w3.org/2000/svg">
<path d="M23.6316 0.263062C10.779 0.263062 0.263184 10.7789 0.263184 23.6315C0.263184 36.4842 10.779 47 23.6316 47C36.4843 47 47.0001 36.4842 47.0001 23.6315C47.0001 10.7789 36.4843 0.263062 23.6316 0.263062ZM23.6316 6.10518C33.3296 6.10518 41.158 13.9336 41.158 23.6315C41.158 33.3294 33.3296 41.1579 23.6316 41.1579C13.9337 41.1579 6.1053 33.3294 6.1053 23.6315C6.1053 13.9336 13.9337 6.10518 23.6316 6.10518ZM20.7106 11.9473V24.9168L21.6453 25.6763L24.5664 28.5973L26.5527 30.8173L30.759 26.611L28.539 24.6247L26.5527 22.6384V12.0641H20.7106V11.9473Z" fill="#407BFF"/>
</svg>
