<svg xmlns="http://www.w3.org/2000/svg" width="196" height="36" fill="none" xmlns:v="https://vecta.io/nano"><circle cx="15" cy="18" r="15" fill="#407bff"/><g stroke="#fff" stroke-width="2"><path d="M21 18a7 7 0 1 1-7-7 6.98 6.98 0 0 1 5 2.101"/><path d="M17 20l4-2 2.5 3.5"/></g><path d="M49.098 35.477c-1.385 0-2.575-.188-3.569-.565-.994-.369-1.793-.866-2.397-1.491s-1.023-1.317-1.257-2.077l3.473-.842a3.82 3.82 0 0 0 .682.948c.298.32.7.582 1.204.788.511.213 1.154.32 1.928.32 1.094 0 1.999-.266 2.717-.799.717-.526 1.076-1.392 1.076-2.599v-3.1h-.192c-.199.398-.49.806-.874 1.225-.376.419-.877.771-1.502 1.055-.618.284-1.396.426-2.333.426-1.257 0-2.397-.295-3.42-.884-1.016-.597-1.825-1.484-2.429-2.663-.597-1.186-.895-2.67-.895-4.453 0-1.797.298-3.313.895-4.549.604-1.243 1.417-2.184 2.44-2.823 1.023-.646 2.163-.969 3.42-.969.959 0 1.747.163 2.365.49.625.32 1.122.707 1.492 1.161.369.447.65.87.842 1.268h.213v-2.706h3.803v16.63c0 1.399-.334 2.557-1.001 3.473s-1.58 1.602-2.738 2.056-2.472.682-3.942.682zm.032-9.737c.817 0 1.513-.199 2.088-.597s1.012-.969 1.31-1.715.448-1.641.448-2.685c0-1.03-.149-1.932-.448-2.706-.291-.774-.724-1.374-1.3-1.8-.568-.433-1.268-.65-2.099-.65-.859 0-1.577.224-2.152.671s-1.009 1.062-1.3 1.843c-.291.774-.437 1.655-.437 2.642 0 1.001.146 1.879.437 2.631.298.746.735 1.328 1.31 1.747.582.412 1.296.618 2.141.618zM60.732 29V12.636h3.739v2.727h.17c.298-.945.81-1.672 1.534-2.184.732-.519 1.566-.778 2.504-.778l.714.032a4.82 4.82 0 0 1 .671.075v3.548c-.163-.057-.423-.107-.778-.149-.348-.05-.685-.075-1.012-.075-.703 0-1.335.153-1.896.458-.554.298-.991.714-1.31 1.246s-.479 1.147-.479 1.843V29h-3.857zm16.31.33c-1.037 0-1.971-.185-2.802-.554-.824-.376-1.477-.93-1.96-1.662-.476-.732-.714-1.634-.714-2.706 0-.923.17-1.687.511-2.291s.806-1.087 1.396-1.449 1.254-.636 1.992-.82a16.22 16.22 0 0 1 2.312-.416l2.333-.266c.597-.085 1.03-.213 1.3-.383.277-.178.415-.451.415-.82v-.064c0-.803-.238-1.424-.714-1.864s-1.161-.661-2.056-.661c-.945 0-1.694.206-2.248.618-.547.412-.916.898-1.108 1.459l-3.601-.511c.284-.994.753-1.825 1.406-2.493.653-.675 1.452-1.179 2.397-1.513.945-.341 1.989-.511 3.132-.511a10.2 10.2 0 0 1 2.354.277 6.62 6.62 0 0 1 2.141.916 4.6 4.6 0 0 1 1.555 1.715c.398.724.597 1.63.597 2.717V29h-3.707v-2.248h-.128c-.234.455-.565.881-.991 1.278-.419.391-.948.707-1.587.948-.632.234-1.374.352-2.227.352zm1.001-2.834c.774 0 1.445-.153 2.013-.458.568-.312 1.005-.724 1.31-1.236.313-.511.469-1.069.469-1.673v-1.928c-.121.099-.327.192-.618.277a8.75 8.75 0 0 1-.959.224l-1.055.171-.905.128c-.575.078-1.09.206-1.545.384s-.813.426-1.076.746c-.263.313-.394.717-.394 1.215 0 .71.259 1.246.778 1.609s1.179.543 1.981.543zM89.56 29V12.636h3.686v2.781h.192c.341-.937.906-1.669 1.694-2.195.788-.533 1.729-.799 2.823-.799 1.108 0 2.042.27 2.802.81.767.533 1.307 1.261 1.62 2.184h.17c.362-.909.973-1.633 1.833-2.173.866-.547 1.892-.82 3.078-.82 1.506 0 2.735.476 3.686 1.428s1.428 2.34 1.428 4.165V29h-3.867V18.613c0-1.016-.27-1.758-.81-2.227-.54-.476-1.2-.714-1.981-.714-.931 0-1.659.291-2.184.874-.519.575-.778 1.325-.778 2.248V29h-3.782V18.453c0-.845-.256-1.52-.767-2.024-.504-.504-1.165-.756-1.981-.756-.554 0-1.058.142-1.513.426-.455.277-.817.671-1.087 1.182-.27.504-.405 1.094-.405 1.769V29H89.56zm26.923 0V12.636h3.687v2.781h.191c.341-.937.906-1.669 1.694-2.195.789-.533 1.73-.799 2.823-.799 1.108 0 2.042.27 2.802.81.767.533 1.307 1.261 1.62 2.184h.17c.362-.909.973-1.633 1.832-2.173.867-.547 1.893-.82 3.079-.82 1.506 0 2.735.476 3.686 1.428s1.428 2.34 1.428 4.165V29h-3.867V18.613c0-1.016-.27-1.758-.81-2.227-.54-.476-1.2-.714-1.982-.714-.93 0-1.658.291-2.183.874-.519.575-.778 1.325-.778 2.248V29h-3.782V18.453c0-.845-.256-1.52-.767-2.024-.504-.504-1.165-.756-1.982-.756-.554 0-1.058.142-1.513.426-.454.277-.816.671-1.086 1.182-.27.504-.405 1.094-.405 1.769V29h-3.857zm31.633.33c-1.037 0-1.971-.185-2.802-.554a4.57 4.57 0 0 1-1.96-1.662c-.476-.732-.714-1.634-.714-2.706 0-.923.171-1.687.512-2.291a3.96 3.96 0 0 1 1.395-1.449c.59-.362 1.254-.636 1.992-.82a16.24 16.24 0 0 1 2.312-.416l2.333-.266c.597-.085 1.03-.213 1.3-.383.277-.178.416-.451.416-.82v-.064c0-.803-.238-1.424-.714-1.864s-1.161-.661-2.056-.661c-.945 0-1.694.206-2.248.618-.547.412-.916.898-1.108 1.459l-3.601-.511c.284-.994.753-1.825 1.406-2.493.654-.675 1.453-1.179 2.397-1.513.945-.341 1.989-.511 3.132-.511.789 0 1.573.092 2.355.277a6.62 6.62 0 0 1 2.141.916c.646.419 1.165.991 1.555 1.715.398.724.597 1.63.597 2.717V29h-3.707v-2.248h-.128c-.235.455-.565.881-.991 1.278-.419.391-.948.707-1.587.948-.632.234-1.375.352-2.227.352zm1.002-2.834c.774 0 1.445-.153 2.013-.458.568-.312 1.005-.724 1.31-1.236.313-.511.469-1.069.469-1.673v-1.928c-.121.099-.327.192-.618.277a8.7 8.7 0 0 1-.959.224l-1.054.171-.906.128c-.575.078-1.09.206-1.545.384s-.813.426-1.076.746c-.262.313-.394.717-.394 1.215 0 .71.26 1.246.778 1.609s1.179.543 1.982.543zM160.634 29V12.636h3.739v2.727h.171c.298-.945.809-1.672 1.534-2.184.731-.519 1.566-.778 2.503-.778l.714.032c.27.014.494.039.671.075v3.548c-.163-.057-.422-.107-.777-.149-.348-.05-.686-.075-1.013-.075-.703 0-1.335.153-1.896.458-.554.298-.991.714-1.31 1.246s-.48 1.147-.48 1.843V29h-3.856zm15.751-21.818V29h-3.857V7.182h3.857zm6.363 27.955c-.526 0-1.012-.043-1.46-.128-.44-.078-.792-.17-1.055-.277l.895-3.004c.561.163 1.062.242 1.503.234s.827-.146 1.161-.415c.341-.263.628-.703.863-1.321l.33-.884-5.934-16.705h4.091l3.771 12.358h.171l3.782-12.358h4.101l-6.552 18.345c-.305.866-.71 1.609-1.214 2.227a4.93 4.93 0 0 1-1.854 1.428c-.724.334-1.591.501-2.599.501z" fill="#407bff"/></svg>