<svg width="500" height="500" viewBox="0 0 500 500" fill="none" xmlns="http://www.w3.org/2000/svg">
<path d="M500 382.398H0V382.648H500V382.398Z" fill="#EBEBEB"/>
<path d="M238.401 337.8H45.3017C42.1547 337.8 39.5938 335.239 39.5938 332.092V60.66C39.5938 57.513 42.1547 54.952 45.3017 54.952H238.401C241.547 54.952 244.108 57.513 244.108 60.66V332.092C244.108 335.239 241.547 337.8 238.401 337.8ZM45.3017 55.203C42.2917 55.203 39.8438 57.651 39.8438 60.661V332.093C39.8438 335.103 42.2917 337.551 45.3017 337.551H238.401C241.41 337.551 243.858 335.103 243.858 332.093V60.66C243.858 57.651 241.41 55.202 238.401 55.202L45.3017 55.203Z" fill="#EBEBEB"/>
<path d="M454.698 337.8H261.599C258.453 337.8 255.892 335.239 255.892 332.092V60.66C255.892 57.513 258.453 54.952 261.599 54.952H454.698C457.846 54.952 460.406 57.513 460.406 60.66V332.092C460.406 335.239 457.845 337.8 454.698 337.8ZM261.599 55.203C258.59 55.203 256.142 57.651 256.142 60.661V332.093C256.142 335.103 258.59 337.551 261.599 337.551H454.698C457.708 337.551 460.156 335.103 460.156 332.093V60.66C460.156 57.651 457.708 55.202 454.698 55.202L261.599 55.203Z" fill="#EBEBEB"/>
<path d="M500 382.398H0V382.648H500V382.398Z" fill="#EBEBEB"/>
<path d="M449.901 398.494H416.779V398.744H449.901V398.494Z" fill="#EBEBEB"/>
<path d="M331.22 401.208H322.527V401.458H331.22V401.208Z" fill="#EBEBEB"/>
<path d="M415.778 389.208H396.586V389.458H415.778V389.208Z" fill="#EBEBEB"/>
<path d="M95.652 390.888H52.459V391.138H95.652V390.888Z" fill="#EBEBEB"/>
<path d="M225.147 395.111H131.471V395.361H225.147V395.111Z" fill="#EBEBEB"/>
<path d="M154.366 158.677C166.661 158.71 201.136 163.713 201.136 145.195C201.136 129.46 184.287 130.618 184.287 130.618C184.287 130.618 184.774 116.985 169.762 115.172C154.366 113.313 152.042 128.043 152.042 128.043C152.042 128.043 125.317 118.663 129.383 142.201C129.383 142.201 114.568 139.584 114.568 150.181C114.568 162.024 142.455 158.646 154.366 158.677Z" fill="#F0F0F0"/>
<path d="M138.876 298.708C163.832 298.783 233.805 310.243 233.805 267.827C233.805 231.787 199.607 234.439 199.607 234.439C199.607 234.439 200.595 203.214 170.126 199.062C138.876 194.803 134.159 228.543 134.159 228.543C134.159 228.543 79.9137 207.059 88.1687 260.972C88.1687 260.972 58.0977 254.979 58.0977 279.25C58.0977 306.373 114.702 298.635 138.876 298.708Z" fill="#F5F5F5"/>
<path d="M232.095 302.462C218.289 302.503 179.579 308.843 179.579 285.378C179.579 265.44 198.498 266.908 198.498 266.908C198.498 266.908 197.951 249.634 214.807 247.337C232.095 244.981 234.704 263.646 234.704 263.646C234.704 263.646 264.713 251.761 260.146 281.586C260.146 281.586 276.781 278.271 276.781 291.698C276.782 306.702 245.469 302.422 232.095 302.462Z" fill="#F0F0F0"/>
<path d="M309.145 204.16C322.915 204.195 361.524 209.474 361.524 189.932C361.524 173.327 342.654 174.549 342.654 174.549C342.654 174.549 343.199 160.163 326.387 158.25C309.144 156.288 306.541 171.833 306.541 171.833C306.541 171.833 276.61 161.935 281.165 186.774C281.165 186.774 264.573 184.013 264.573 195.195C264.574 207.691 295.806 204.126 309.145 204.16Z" fill="#F0F0F0"/>
<path d="M268.09 382.282L288.213 251.826L348.054 176.277L368.455 90.237C368.455 90.237 417.909 138.025 419.28 139.279C420.652 140.533 431.539 269.521 433.051 271.49C434.563 273.459 448.771 295.952 448.771 295.952L455.382 381.889L268.09 382.282Z" fill="#FAFAFA"/>
<path d="M268.09 382.282L296.768 269.556L337.404 230.823L345.011 279.851L355.245 224.081L366.867 243.096L364.344 177.536L366.362 156.561L373.181 170.484L368.454 90.236L402.932 91.033L410.108 128.912L419.279 139.278L433.05 271.489L448.771 295.951L455.381 381.888L268.09 382.282Z" fill="#EBEBEB"/>
<path d="M369.354 90.671L389.834 156.939L402.037 166.635C402.037 166.635 408.473 193.569 408.4 191.847C408.327 190.125 407.661 159.95 407.661 159.95L410.821 135.328L402.847 91.469L369.354 90.671Z" fill="#F5F5F5"/>
<path d="M433.05 271.489L437.83 293.767L448.771 295.951L433.05 271.489Z" fill="#F5F5F5"/>
<path d="M356.064 337.439C377.937 337.505 439.264 347.549 439.264 310.374C439.264 278.787 409.291 281.112 409.291 281.112C409.291 281.112 410.157 253.745 383.453 250.106C356.064 246.374 351.93 275.945 351.93 275.945C351.93 275.945 304.387 257.115 311.622 304.367C311.622 304.367 285.267 299.114 285.267 320.387C285.266 344.157 334.876 337.375 356.064 337.439Z" fill="#F5F5F5"/>
<path d="M110.889 390.888H104.556V391.138H110.889V390.888Z" fill="#EBEBEB"/>
<path d="M252.139 427.016C359.221 427.016 446.028 421.947 446.028 415.693C446.028 409.439 359.221 404.37 252.139 404.37C145.057 404.37 58.25 409.439 58.25 415.693C58.25 421.947 145.057 427.016 252.139 427.016Z" fill="#F5F5F5"/>
<path d="M403.35 95.08C403.35 104.74 395.52 112.57 385.86 112.57C385.47 112.57 385.08 112.56 384.69 112.53C375.59 111.93 368.38 104.35 368.38 95.08C368.38 85.81 375.59 78.23 384.69 77.63C385.08 77.6 385.47 77.59 385.86 77.59C395.52 77.59 403.35 85.42 403.35 95.08Z" fill="#407BFF"/>
<path opacity="0.2" d="M401.01 95.08C401.01 104.35 393.8 111.93 384.69 112.53C375.59 111.93 368.38 104.35 368.38 95.08C368.38 85.81 375.59 78.23 384.69 77.63C393.8 78.23 401.01 85.81 401.01 95.08Z" fill="white"/>
<path opacity="0.4" d="M396.752 100.081C399.518 93.4038 396.348 85.7493 389.671 82.9837C382.994 80.218 375.34 83.3886 372.574 90.0653C369.808 96.742 372.979 104.396 379.656 107.162C386.332 109.928 393.987 106.757 396.752 100.081Z" fill="white"/>
<g opacity="0.7">
<path d="M390.672 97.864C391.178 100.757 389.19 102.692 385.61 102.996L385.55 105.389H383.375L383.435 102.996C381.334 102.801 379.393 102.149 378.139 101.322L379.124 98.625C380.426 99.474 381.978 100.017 383.505 100.17L383.601 96.495C381.472 95.886 379.112 95.082 378.651 92.449C378.145 89.557 380.174 87.6 383.825 87.337L383.885 84.944H386.06L386.004 87.359C387.575 87.51 389.065 87.947 390.223 88.598L389.369 91.295C388.323 90.665 387.127 90.294 385.93 90.164L385.839 93.992C387.944 94.579 390.234 95.362 390.672 97.864ZM383.668 93.383L383.75 90.251C382.552 90.491 381.974 91.164 382.098 91.991C382.216 92.665 382.827 93.056 383.668 93.383ZM387.247 98.429C387.137 97.799 386.567 97.406 385.757 97.124L385.691 100.103C386.824 99.864 387.392 99.256 387.247 98.429Z" fill="white"/>
</g>
<path d="M298.864 255.71H239.694V415.741H298.864V255.71Z" fill="#407BFF"/>
<path opacity="0.2" d="M256.4 255.555H239.68V415.773H256.4V255.555Z" fill="black"/>
<path d="M239.616 319.71H180.446V415.74H239.616V319.71Z" fill="#407BFF"/>
<path opacity="0.2" d="M198.226 319.71H180.446V415.64H198.226V319.71Z" fill="black"/>
<path d="M180.399 340.1H121.229V415.74H180.399V340.1Z" fill="#407BFF"/>
<path opacity="0.2" d="M138.829 340.1H121.229V415.64H138.829V340.1Z" fill="black"/>
<path d="M121.212 360.494H62.0439V415.742H121.212V360.494Z" fill="#407BFF"/>
<path opacity="0.2" d="M78.7659 360.439H62.0459V415.639H78.7659V360.439Z" fill="black"/>
<path d="M222.919 132.081C220.109 135.478 217.215 138.806 214.319 142.129L212.13 144.608L210.166 146.798C209.358 147.751 208.826 148.947 208.637 150.25L207.978 156.705C207.757 158.895 207.544 161.084 207.287 163.273C206.804 167.65 206.301 172.026 205.714 176.398C205.508 177.931 204.098 179.006 202.566 178.8C201.214 178.618 200.219 177.499 200.144 176.186C199.89 171.786 199.723 167.39 199.574 162.996C199.484 160.798 199.439 158.602 199.385 156.406L199.236 149.704C199.277 146.621 200.295 143.521 202.058 140.919L204.235 137.991L206.208 135.369C208.861 131.89 211.517 128.418 214.256 125.013C216.192 122.607 219.711 122.226 222.117 124.162C224.523 126.098 224.904 129.617 222.968 132.023C222.957 132.034 222.929 132.069 222.919 132.081Z" fill="#407BFF"/>
<path d="M199.45 176.692L195.795 182.897L204.209 183.751L205.69 177.451C205.865 176.705 205.386 175.952 204.63 175.822C203.235 175.583 201.053 175.484 199.45 176.692Z" fill="#CB7A63"/>
<path d="M195.795 182.897L196.179 185.092C196.368 186.177 197.312 186.967 198.413 186.964L201.153 186.957C201.988 186.955 202.753 186.493 203.145 185.756L204.209 183.751L195.795 182.897Z" fill="#CB7A63"/>
<path d="M198.854 172.04L206.953 172.317L206.431 177.155L199.59 176.627L198.854 172.04Z" fill="#407BFF"/>
<path opacity="0.3" d="M198.854 172.04L206.953 172.317L206.431 177.155L199.59 176.627L198.854 172.04Z" fill="white"/>
<path d="M207.023 222.837L205.692 224.837L204.674 222.771L207.099 191.373C207.484 186.381 205.801 182.28 199.591 182.129C193.783 181.988 190.258 185.956 189.853 190.939L187.31 222.28L185.919 224.274L184.97 222.214L187.529 190.88C188.002 185.087 190.573 180.439 199.707 180.659C208.857 180.88 209.877 185.625 209.431 191.431L207.023 222.837Z" fill="#263238"/>
<path d="M181.285 201.658L179.679 201.65C176.335 201.634 173.501 204.109 173.067 207.425L170.106 230.052L180.524 230.423L181.285 201.658Z" fill="#263238"/>
<path opacity="0.2" d="M181.285 201.658L179.679 201.65C176.335 201.634 173.501 204.109 173.067 207.425L170.106 230.052L180.524 230.423L181.285 201.658Z" fill="white"/>
<path d="M210.701 223.102L208.347 223.036L208.576 191.638C208.612 186.646 206.642 182.545 200.422 182.394C194.604 182.253 191.356 186.221 191.3 191.204L190.948 222.545L188.603 222.479L188.971 191.145C189.039 185.352 191.285 180.704 200.434 180.924C209.6 181.145 210.951 185.89 210.912 191.696L210.701 223.102Z" fill="#263238"/>
<path d="M221.742 231.648L175.437 230.274L175.884 206.932C175.928 203.942 178.346 201.583 181.286 201.66L214.999 202.542C218.807 202.642 221.882 205.851 221.866 209.716L221.742 231.648Z" fill="#263238"/>
<path opacity="0.4" d="M216.61 231.495L180.525 230.424C177.713 230.341 175.47 227.941 175.512 225.068L175.883 206.931C175.927 203.941 178.345 201.582 181.285 201.659L214.998 202.541C218.806 202.641 221.881 205.85 221.865 209.715L221.763 226.418C221.751 229.304 219.443 231.579 216.61 231.495Z" fill="white"/>
<g opacity="0.3">
<path d="M210.7 223.102L209.509 225.102L208.347 223.036L208.576 191.638C208.612 186.646 206.642 182.545 200.422 182.394C194.604 182.253 191.356 186.221 191.3 191.204L190.948 222.545L189.697 224.539L188.604 222.478L188.972 191.144C189.04 185.351 191.286 180.703 200.435 180.923C209.601 181.144 210.952 185.889 210.913 191.695L210.7 223.102Z" fill="white"/>
</g>
<path d="M191.745 210.434L187.886 210.329L187.903 208.876L191.761 208.98L191.745 210.434Z" fill="#263238"/>
<path d="M191.64 219.855L187.772 219.747L187.79 218.288L191.656 218.395L191.64 219.855Z" fill="#263238"/>
<path d="M211.576 210.969L207.701 210.865L207.712 209.408L211.585 209.512L211.576 210.969Z" fill="#263238"/>
<path d="M211.515 220.41L207.632 220.302L207.643 218.839L211.524 218.947L211.515 220.41Z" fill="#263238"/>
<path d="M204.193 211.598L195.907 211.374L195.938 208.265L204.218 208.487L204.193 211.598Z" fill="white"/>
<path d="M239.942 96.992C240.261 96.931 240.6 97.263 240.704 97.745C240.807 98.227 240.64 98.679 240.322 98.74C240.003 98.801 239.664 98.469 239.561 97.987C239.431 97.489 239.623 97.053 239.942 96.992Z" fill="#263238"/>
<path d="M239.999 97.396C240.325 97.244 240.624 96.904 240.755 96.569C240.476 96.83 240.093 96.975 239.711 96.966C239.857 97.048 239.991 97.228 239.999 97.396Z" fill="#263238"/>
<path d="M240.637 102.29C241.477 102.325 242.288 101.986 242.854 101.365C241.629 100.301 240.556 99.076 239.662 97.722L240.637 102.29Z" fill="#B74D3C"/>
<path d="M237.264 96.203C237.727 95.622 238.443 95.3 239.185 95.339C239.216 95.349 239.248 95.354 239.281 95.353C239.444 95.35 239.573 95.215 239.57 95.052C239.567 94.889 239.432 94.76 239.27 94.763C238.342 94.688 237.435 95.066 236.836 95.779C236.79 95.832 236.766 95.9 236.766 95.971C236.766 96.134 236.898 96.266 237.061 96.266C237.134 96.272 237.206 96.249 237.264 96.203Z" fill="#263238"/>
<path d="M234.219 125.103C225.9 125.192 224.625 120.664 224.625 120.664C227.096 118.238 227.219 113.798 226.694 109.84C227.331 110.735 228.125 111.517 229.165 112.21C231.155 113.518 235.472 111.416 235.472 111.416C235.483 111.416 235.472 112.154 235.528 113.216C235.662 115.81 236.232 120.361 238.592 121.066C238.592 121.066 243.389 125.003 234.219 125.103Z" fill="#CB7A63"/>
<path d="M235.594 112.091C235.506 112.473 235.417 112.856 235.364 113.261C235.33 113.284 235.295 113.296 235.26 113.297C233.312 113.781 231.158 113.515 229.168 112.207C228.12 111.513 227.326 110.736 226.692 109.841C226.566 108.837 226.382 107.856 226.198 106.956L235.257 111.91L235.594 112.091Z" fill="#CB7A63"/>
<path d="M241.555 105.299C241.496 108.375 239.813 110.971 237.459 112.383H237.447C237.436 112.395 237.424 112.395 237.412 112.395C236.78 112.795 236.09 113.08 235.364 113.261C235.33 113.284 235.295 113.296 235.26 113.297C233.312 113.781 231.158 113.515 229.168 112.207C228.12 111.513 227.326 110.736 226.692 109.841C225.061 107.604 224.381 104.618 223.215 100.422C222.855 99.189 222.783 97.884 223.012 96.621C223.83 92.104 228.156 89.109 232.662 89.927C238.985 91.05 241.679 99.679 241.555 105.299Z" fill="#CB7A63"/>
<path opacity="0.2" d="M237.005 112.546C236.423 112.915 236.133 113.06 235.529 113.217C235.473 112.155 235.485 111.417 235.473 111.417C235.529 110.489 235.596 109.561 235.596 109.561C235.596 109.594 236.569 112.546 237.005 112.546Z" fill="black"/>
<path d="M239.37 93.954C238.693 95.03 236.561 95.94 236.633 95.69C237 94.797 236.932 93.083 235.825 93.484C236.131 94.167 237.049 99.302 236.633 99.925C236.405 100.266 236.19 104.374 234.441 107.996C233.046 110.886 233.046 111.782 233.046 111.782L227.367 112.878C225.241 112.612 223.261 109.896 223.086 109.595C222.344 108.318 220.075 106.641 218.895 105.754C218.385 105.37 217.986 104.805 217.77 104.199C217.381 103.109 218.176 99.181 218.349 97.334C218.598 94.677 219.993 92.219 223.847 90.641C226.23 89.665 228.235 87.524 230.666 86.677C233.098 85.83 235.99 85.868 238.044 87.421C239.054 88.185 241.067 91.257 239.37 93.954Z" fill="#263238"/>
<path d="M236.403 97.694C238.153 98.207 239.065 100.785 239.14 102.423C239.225 104.232 238.017 105.375 236.44 104.164C235.252 103.231 234.404 101.934 234.025 100.472C233.597 98.699 234.653 97.18 236.403 97.694Z" fill="#CB7A63"/>
<path d="M238.507 103.718C238.507 104.14 238.165 104.482 237.743 104.482C237.321 104.482 236.979 104.14 236.979 103.718C236.979 103.296 237.321 102.954 237.743 102.954C238.165 102.954 238.507 103.296 238.507 103.718Z" fill="#407BFF"/>
<path opacity="0.3" d="M238.507 103.718C238.507 104.14 238.165 104.482 237.743 104.482C237.321 104.482 236.979 104.14 236.979 103.718C236.979 103.296 237.321 102.954 237.743 102.954C238.165 102.954 238.507 103.296 238.507 103.718Z" fill="white"/>
<path d="M222.236 123.663C222.236 123.663 223.529 119.674 225.478 118.414C227.428 117.154 235.987 118.461 237.328 118.986C238.669 119.511 240.023 122.602 240.023 122.602L222.236 123.663Z" fill="#407BFF"/>
<path opacity="0.3" d="M222.236 123.663C222.236 123.663 223.529 119.674 225.478 118.414C227.428 117.154 235.987 118.461 237.328 118.986C238.669 119.511 240.023 122.602 240.023 122.602L222.236 123.663Z" fill="white"/>
<path d="M241.782 121.959C240.45 121.74 240.083 121.539 238.557 121.419C233.965 121.203 229.363 121.253 224.777 121.568C223.102 121.688 221.491 122.012 219.892 122.395C216.607 123.184 214.392 126.245 214.636 129.59C215.318 138.952 218.085 144.445 218.493 150.608C219.306 162.887 217.347 171.496 217.014 174.362L223.309 175.318C234.553 175.051 242.018 172.634 248.206 170.002C248.206 170.002 246.584 155.157 248.152 149.808C252.437 135.194 249.655 132.882 248.81 128.698C248.106 125.22 245.308 122.537 241.782 121.959Z" fill="#407BFF"/>
<path opacity="0.1" d="M248.152 149.804C247.638 151.548 247.47 154.299 247.47 157.206C247.47 163.244 248.208 169.998 248.208 169.998C242.024 172.637 234.555 175.052 223.306 175.32L217.011 174.358C217.346 171.495 219.303 162.886 218.498 150.608C218.084 144.447 215.323 138.957 214.64 129.586C214.394 126.243 216.608 123.179 219.895 122.396C221.494 122.005 223.104 121.692 224.781 121.569C229.366 121.256 233.961 121.2 238.557 121.412C240.078 121.535 240.447 121.736 241.777 121.96C245.31 122.541 248.106 125.214 248.81 128.703C249.112 130.201 249.671 131.465 250.051 133.142C250.52 135.177 250.744 137.827 249.961 142.266C249.605 144.347 249.024 146.818 248.152 149.804Z" fill="white"/>
<path d="M243.59 121.506C245.888 121.83 248.165 122.289 250.453 122.675C252.733 123.115 255.011 123.567 257.283 124.056L256.46 123.991C257.474 124.036 258.366 124.115 258.929 124.15C259.201 124.17 259.392 124.165 259.321 124.206C259.307 124.229 259.174 124.271 259.019 124.371C258.825 124.475 258.591 124.644 258.337 124.904C257.813 125.429 257.603 126.132 257.618 126.34C257.614 126.567 257.686 126.514 257.698 126.338C257.737 125.977 257.66 125.287 257.511 124.577L257.615 124.872C256.462 121.544 255.367 118.193 254.364 114.805C253.391 111.406 252.456 107.992 251.792 104.472C251.537 103.121 252.426 101.818 253.778 101.563C254.812 101.368 255.819 101.848 256.348 102.686C258.253 105.72 259.886 108.86 261.481 112.015C263.047 115.182 264.52 118.385 265.935 121.61L266.039 121.905C266.426 122.925 266.804 123.998 267.031 125.441C267.135 126.165 267.208 127.027 267.043 128.147C266.89 129.242 266.29 130.811 265.108 131.964C264.53 132.543 263.905 132.95 263.31 133.262C262.742 133.547 262.183 133.749 261.727 133.873C260.775 134.136 260.06 134.213 259.428 134.278C258.18 134.396 257.259 134.401 256.462 134.448L256.334 134.456L255.638 134.383C253.327 134.141 251.021 133.863 248.717 133.572C246.422 133.228 244.115 132.956 241.83 132.549C238.79 132.008 236.764 129.104 237.306 126.063C237.835 123.093 240.628 121.093 243.59 121.506Z" fill="#407BFF"/>
<g opacity="0.1">
<path d="M243.59 121.506C245.888 121.83 248.165 122.289 250.453 122.675C252.733 123.115 255.011 123.567 257.283 124.056L256.46 123.991C257.474 124.036 258.366 124.115 258.929 124.15C259.201 124.17 259.392 124.165 259.321 124.206C259.307 124.229 259.174 124.271 259.019 124.371C258.825 124.475 258.591 124.644 258.337 124.904C257.813 125.429 257.603 126.132 257.618 126.34C257.614 126.567 257.686 126.514 257.698 126.338C257.737 125.977 257.66 125.287 257.511 124.577L257.615 124.872C256.462 121.544 255.367 118.193 254.364 114.805C253.391 111.406 252.456 107.992 251.792 104.472C251.537 103.121 252.426 101.818 253.778 101.563C254.812 101.368 255.819 101.848 256.348 102.686C258.253 105.72 259.886 108.86 261.481 112.015C263.047 115.182 264.52 118.385 265.935 121.61L266.039 121.905C266.426 122.925 266.804 123.998 267.031 125.441C267.135 126.165 267.208 127.027 267.043 128.147C266.89 129.242 266.29 130.811 265.108 131.964C264.53 132.543 263.905 132.95 263.31 133.262C262.742 133.547 262.183 133.749 261.727 133.873C260.775 134.136 260.06 134.213 259.428 134.278C258.18 134.396 257.259 134.401 256.462 134.448L256.334 134.456L255.638 134.383C253.327 134.141 251.021 133.863 248.717 133.572C246.422 133.228 244.115 132.956 241.83 132.549C238.79 132.008 236.764 129.104 237.306 126.063C237.835 123.093 240.628 121.093 243.59 121.506Z" fill="white"/>
</g>
<path d="M284.944 99.978L314.925 99.059L314.465 89.667L284.544 91.637L284.944 99.978Z" fill="#407BFF"/>
<path d="M262.283 100.338L286.527 99.558L286.158 91.857L261.957 93.418L262.283 100.338Z" fill="#407BFF"/>
<path d="M283.326 99.755L284.915 99.923L284.521 91.695L282.956 92.015L283.326 99.755Z" fill="#263238"/>
<path opacity="0.2" d="M283.326 99.755L284.915 99.923L284.521 91.695L282.956 92.015L283.326 99.755Z" fill="black"/>
<path d="M284.917 99.979L286.545 99.929L286.142 91.532L284.518 91.639L284.917 99.979Z" fill="#263238"/>
<path d="M258.518 99.2L260.924 100.317L260.606 93.57L258.316 94.913L258.518 99.2Z" fill="#263238"/>
<path d="M246.199 99.116L253.328 98.745L253.18 95.587L246.054 96.013L246.199 99.116Z" fill="#263238"/>
<path opacity="0.2" d="M246.199 99.116L253.328 98.745L253.18 95.587L246.054 96.013L246.199 99.116Z" fill="black"/>
<path d="M252.352 99.383L260.284 99.078L260.076 94.658L252.153 95.127L252.352 99.383Z" fill="#263238"/>
<path opacity="0.2" d="M258.518 99.2L260.924 100.317L260.606 93.57L258.316 94.913L258.518 99.2Z" fill="black"/>
<path d="M260.968 100.381L262.283 100.338L261.957 93.418L260.644 93.503L260.968 100.381Z" fill="#263238"/>
<path d="M313.903 99.09L318.606 98.922L318.144 89.494L313.445 89.734L313.903 99.09Z" fill="#263238"/>
<path d="M315.989 99.757L321.989 99.589L322.138 99.174C323.42 95.617 323.165 91.687 321.434 88.326L315.448 88.74L315.579 89.054C317.001 92.456 317.147 96.257 315.989 99.757Z" fill="#407BFF"/>
<g opacity="0.4">
<path d="M309.598 90.709L312.025 90.559L312.075 91.594L309.61 91.736C309.551 91.398 309.57 91.052 309.598 90.709Z" fill="white"/>
<path d="M308.131 90.824C308.105 91.166 308.089 91.509 308.142 91.845L287.097 93.037L287.046 92.102L308.131 90.824Z" fill="white"/>
</g>
<g opacity="0.4">
<path d="M262.47 93.964L262.514 94.803L282.287 93.629L282.244 92.711L262.47 93.964Z" fill="white"/>
</g>
<g opacity="0.4">
<path d="M315.979 89.064L316.038 90.112L320.728 89.803L320.677 88.734L315.979 89.064Z" fill="white"/>
</g>
<path opacity="0.3" d="M321.385 98.204C321.355 98.562 321.337 98.921 321.394 99.275L316.537 99.441L316.478 98.392L321.385 98.204Z" fill="black"/>
<path opacity="0.3" d="M312.686 97.619C312.658 97.966 312.642 98.314 312.696 98.656L286.954 99.576L286.903 98.642L312.686 97.619Z" fill="black"/>
<path opacity="0.3" d="M282.05 98.523C282.03 98.829 282.018 99.138 282.062 99.441L262.935 100.113L262.891 99.272L282.05 98.523Z" fill="black"/>
<path d="M244.596 96.133L244.658 99.153C244.668 99.666 245.133 100.075 245.698 100.065L248.149 100.023L248.047 95.075L245.597 95.165C245.033 95.187 244.586 95.619 244.596 96.133Z" fill="#407BFF"/>
<path d="M257.266 104.511L258.197 98.883C258.236 98.649 258.244 98.411 258.223 98.176L257.956 95.193C257.912 94.807 257.641 94.428 257.221 94.299L252.725 94.247C252.132 94.06 251.48 94.344 251.283 94.872L250.476 98.559C250.415 98.835 250.421 99.122 250.493 99.395L251.827 104.472C251.956 104.896 252.347 105.226 252.831 105.319L255.769 105.345C256.461 105.478 257.125 105.109 257.266 104.511Z" fill="#CE7A63"/>
<path d="M259.91 106.882L252.265 109.571L250.992 104.874L257.556 102.877L259.91 106.882Z" fill="#407BFF"/>
<path opacity="0.3" d="M259.91 106.882L252.265 109.571L250.992 104.874L257.556 102.877L259.91 106.882Z" fill="white"/>
<path opacity="0.2" d="M249.963 142.267L244.104 131.208L250.053 133.142C250.522 135.178 250.746 137.828 249.963 142.267Z" fill="black"/>
<path d="M280.168 234.075L278.956 249.096L285.793 249.226L287.669 233.752L280.168 234.075Z" fill="#CE7A63"/>
<path d="M286.876 247.174L279.077 247.332C278.783 247.338 278.53 247.561 278.469 247.871L277.126 254.711C277.003 255.317 277.36 255.911 277.923 256.038C277.995 256.054 278.069 256.062 278.143 256.062C280.954 255.953 283.452 255.737 286.953 255.671C291.083 255.589 290.041 256.14 294.897 256.116C297.823 256.098 298.324 252.517 297.081 252.367C291.395 251.715 290.788 249.886 288.576 247.748C288.095 247.339 287.49 247.135 286.876 247.174Z" fill="#263238"/>
<path d="M205.509 298.446L202.744 312.242L210.095 314.487L213.636 300.396L205.509 298.446Z" fill="#CE7A63"/>
<path d="M244.841 170.604C244.841 170.604 234.378 231.668 228.695 249.639C224.649 262.435 213.795 304.299 213.795 304.299L203.949 302.116C203.949 302.116 202.848 273.62 208.324 258.911C210.192 253.893 212.63 249.366 213.29 246.255C216.11 232.964 210.298 208.852 212.867 190.868C214.26 181.12 217.235 174.168 217.235 174.168L244.841 170.604Z" fill="#263238"/>
<path d="M228.695 249.639C224.649 262.435 213.795 304.299 213.795 304.299L203.949 302.116C203.949 302.116 202.848 273.62 208.324 258.911C210.192 253.893 212.63 249.366 213.29 246.255C216.11 232.964 210.298 208.852 212.867 190.868C214.26 181.12 217.235 174.168 217.235 174.168" fill="#263238"/>
<path opacity="0.2" d="M232.012 189.479L237.279 210.161L241.132 190.378L232.012 189.479Z" fill="black"/>
<path d="M288.148 241.28L278.528 241.59C278.528 241.59 279.238 229 279.238 210.64C279.238 207.81 279.678 205.02 280.298 202.52C281.668 196.91 283.888 192.73 283.888 192.73C283.888 192.73 282.858 192.79 281.098 192.87C275.658 193.15 241.936 194.892 241.276 194.842C240.776 194.792 237.712 195.198 232.218 192.52C222.01 187.543 221.908 173.57 221.908 173.57L248.198 170C248.198 170.02 248.628 170.08 254.958 170.19C274.148 170.52 297.731 171.263 301.87 177.851C307.691 187.119 288.148 241.28 288.148 241.28Z" fill="#263238"/>
<path d="M210.464 310.916L202.397 311.025C202.093 311.029 201.844 311.254 201.798 311.565L200.794 318.46C200.701 319.071 201.104 319.673 201.694 319.805C201.77 319.822 201.846 319.831 201.923 319.831C204.827 319.739 207.403 319.537 211.024 319.493C215.297 319.437 214.248 319.987 219.276 319.994C222.305 319.995 222.621 316.383 221.326 316.223C215.401 315.528 214.668 313.678 212.257 311.506C211.737 311.09 211.099 310.88 210.464 310.916Z" fill="#263238"/>
<path opacity="0.2" d="M280.298 202.52C281.668 196.91 283.888 192.73 283.888 192.73C283.888 192.73 282.858 192.79 281.098 192.87C281.018 192.84 280.938 192.82 280.838 192.82L287.85 192.23L280.298 202.52Z" fill="black"/>
<path d="M96.5414 127.758C103.316 127.758 108.807 122.266 108.807 115.492C108.807 108.718 103.316 103.226 96.5414 103.226C89.7671 103.226 84.2754 108.718 84.2754 115.492C84.2754 122.266 89.7671 127.758 96.5414 127.758Z" fill="#407BFF"/>
<path opacity="0.6" d="M96.5414 127.758C103.316 127.758 108.807 122.266 108.807 115.492C108.807 108.718 103.316 103.226 96.5414 103.226C89.7671 103.226 84.2754 108.718 84.2754 115.492C84.2754 122.266 89.7671 127.758 96.5414 127.758Z" fill="white"/>
<path d="M96.5633 98.549C95.5553 98.549 94.7393 97.733 94.7393 96.725V88.67C94.7393 87.662 95.5553 86.846 96.5633 86.846C97.5713 86.846 98.3873 87.662 98.3873 88.67V96.725C98.3873 97.732 97.5713 98.549 96.5633 98.549Z" fill="#407BFF"/>
<path d="M96.5633 143.95C95.5553 143.95 94.7393 143.134 94.7393 142.126V134.071C94.7393 133.063 95.5553 132.247 96.5633 132.247C97.5713 132.247 98.3873 133.063 98.3873 134.071V142.126C98.3873 143.133 97.5713 143.95 96.5633 143.95Z" fill="#407BFF"/>
<path d="M83.3595 104.018C82.8925 104.018 82.4255 103.84 82.0695 103.484L78.5875 100.002C77.8745 99.289 77.8745 98.135 78.5875 97.423C79.3005 96.71 80.4555 96.71 81.1665 97.423L84.6485 100.905C85.3605 101.618 85.3605 102.772 84.6485 103.484C84.2935 103.84 83.8265 104.018 83.3595 104.018Z" fill="#407BFF"/>
<path d="M113.013 133.671C112.546 133.671 112.08 133.493 111.723 133.137L108.477 129.891C107.764 129.179 107.764 128.024 108.477 127.312C109.189 126.599 110.344 126.599 111.056 127.312L114.302 130.558C115.015 131.27 115.015 132.425 114.302 133.137C113.946 133.493 113.479 133.671 113.013 133.671Z" fill="#407BFF"/>
<path d="M77.8907 117.222H69.8357C68.8277 117.222 68.0117 116.406 68.0117 115.398C68.0117 114.39 68.8277 113.574 69.8357 113.574H77.8907C78.8987 113.574 79.7147 114.39 79.7147 115.398C79.7147 116.406 78.8987 117.222 77.8907 117.222Z" fill="#407BFF"/>
<path d="M123.292 117.222H115.237C114.229 117.222 113.413 116.406 113.413 115.398C113.413 114.39 114.229 113.574 115.237 113.574H123.292C124.299 113.574 125.116 114.39 125.116 115.398C125.116 116.406 124.3 117.222 123.292 117.222Z" fill="#407BFF"/>
<path d="M80.2896 133.496C79.8226 133.496 79.3566 133.318 78.9996 132.962C78.2866 132.25 78.2866 131.095 78.9996 130.383L82.0696 127.313C82.7806 126.6 83.9366 126.6 84.6486 127.313C85.3606 128.025 85.3606 129.18 84.6486 129.892L81.5786 132.962C81.2236 133.318 80.7566 133.496 80.2896 133.496Z" fill="#407BFF"/>
<path d="M109.767 104.018C109.3 104.018 108.834 103.84 108.477 103.484C107.764 102.772 107.764 101.617 108.477 100.905L111.769 97.613C112.482 96.9 113.636 96.9 114.348 97.613C115.061 98.325 115.061 99.48 114.348 100.192L111.056 103.484C110.7 103.84 110.233 104.018 109.767 104.018Z" fill="#407BFF"/>
<g opacity="0.6">
<path d="M96.5633 98.549C95.5553 98.549 94.7393 97.733 94.7393 96.725V88.67C94.7393 87.662 95.5553 86.846 96.5633 86.846C97.5713 86.846 98.3873 87.662 98.3873 88.67V96.725C98.3873 97.732 97.5713 98.549 96.5633 98.549Z" fill="white"/>
<path d="M96.5633 143.95C95.5553 143.95 94.7393 143.134 94.7393 142.126V134.071C94.7393 133.063 95.5553 132.247 96.5633 132.247C97.5713 132.247 98.3873 133.063 98.3873 134.071V142.126C98.3873 143.133 97.5713 143.95 96.5633 143.95Z" fill="white"/>
<path d="M83.3595 104.018C82.8925 104.018 82.4255 103.84 82.0695 103.484L78.5875 100.002C77.8745 99.289 77.8745 98.135 78.5875 97.423C79.3005 96.71 80.4555 96.71 81.1665 97.423L84.6485 100.905C85.3605 101.618 85.3605 102.772 84.6485 103.484C84.2935 103.84 83.8265 104.018 83.3595 104.018Z" fill="white"/>
<path d="M113.013 133.671C112.546 133.671 112.08 133.493 111.723 133.137L108.477 129.891C107.764 129.179 107.764 128.024 108.477 127.312C109.189 126.599 110.344 126.599 111.056 127.312L114.302 130.558C115.015 131.27 115.015 132.425 114.302 133.137C113.946 133.493 113.479 133.671 113.013 133.671Z" fill="white"/>
<path d="M77.8907 117.222H69.8357C68.8277 117.222 68.0117 116.406 68.0117 115.398C68.0117 114.39 68.8277 113.574 69.8357 113.574H77.8907C78.8987 113.574 79.7147 114.39 79.7147 115.398C79.7147 116.406 78.8987 117.222 77.8907 117.222Z" fill="white"/>
<path d="M123.292 117.222H115.237C114.229 117.222 113.413 116.406 113.413 115.398C113.413 114.39 114.229 113.574 115.237 113.574H123.292C124.299 113.574 125.116 114.39 125.116 115.398C125.116 116.406 124.3 117.222 123.292 117.222Z" fill="white"/>
<path d="M80.2896 133.496C79.8226 133.496 79.3566 133.318 78.9996 132.962C78.2866 132.25 78.2866 131.095 78.9996 130.383L82.0696 127.313C82.7806 126.6 83.9366 126.6 84.6486 127.313C85.3606 128.025 85.3606 129.18 84.6486 129.892L81.5786 132.962C81.2236 133.318 80.7566 133.496 80.2896 133.496Z" fill="white"/>
<path d="M109.767 104.018C109.3 104.018 108.834 103.84 108.477 103.484C107.764 102.772 107.764 101.617 108.477 100.905L111.769 97.613C112.482 96.9 113.636 96.9 114.348 97.613C115.061 98.325 115.061 99.48 114.348 100.192L111.056 103.484C110.7 103.84 110.233 104.018 109.767 104.018Z" fill="white"/>
</g>
</svg>
