<svg width="52" height="64" viewBox="0 0 52 64" fill="none" xmlns="http://www.w3.org/2000/svg">
<path id="Vector" d="M28.99 41.6078C28.9251 41.4111 28.8261 41.227 28.6975 41.0636L28.3075 40.5834C28.0054 40.2834 27.6459 40.0453 27.2499 39.8828C26.8538 39.7203 26.429 39.6366 26 39.6366C25.571 39.6366 25.1462 39.7203 24.7501 39.8828C24.3541 40.0453 23.9946 40.2834 23.6925 40.5834C23.5376 40.7222 23.4059 40.8843 23.3025 41.0636C23.1739 41.227 23.0749 41.4111 23.01 41.6078C22.9159 41.8003 22.8502 42.0051 22.815 42.2159C22.7991 42.4184 22.7991 42.6217 22.815 42.8241C22.8037 43.2544 22.8926 43.6814 23.075 44.0725C23.4057 44.851 24.0352 45.4693 24.8264 45.793C25.6176 46.1167 26.5066 46.1196 27.3 45.8011C27.695 45.6271 28.0575 45.389 28.3725 45.0969C28.6648 44.8019 28.8966 44.4541 29.055 44.0725C29.2257 43.6778 29.3142 43.2532 29.315 42.8241C29.3309 42.6217 29.3309 42.4184 29.315 42.2159C29.2391 41.998 29.1294 41.7928 28.99 41.6078ZM26 17.1521C25.138 17.1521 24.3114 17.4894 23.7019 18.0897C23.0924 18.69 22.75 19.5041 22.75 20.3531V29.9561C22.75 30.8051 23.0924 31.6193 23.7019 32.2196C24.3114 32.8199 25.138 33.1571 26 33.1571C26.862 33.1571 27.6886 32.8199 28.2981 32.2196C28.9076 31.6193 29.25 30.8051 29.25 29.9561V20.3531C29.25 19.5041 28.9076 18.69 28.2981 18.0897C27.6886 17.4894 26.862 17.1521 26 17.1521ZM50.7975 5.27639C50.4199 4.97556 49.9787 4.7619 49.5063 4.65111C49.0338 4.54033 48.5422 4.53523 48.0675 4.63619C44.5947 5.35303 41.0096 5.36216 37.5331 4.66302C34.0565 3.96388 30.762 2.57127 27.8525 0.570916C27.3085 0.199192 26.6621 0 26 0C25.3379 0 24.6915 0.199192 24.1475 0.570916C21.238 2.57127 17.9435 3.96388 14.4669 4.66302C10.9904 5.36216 7.40535 5.35303 3.93252 4.63619C3.45782 4.53523 2.96618 4.54033 2.49374 4.65111C2.02131 4.7619 1.58009 4.97556 1.20252 5.27639C0.825451 5.57766 0.521711 5.95832 0.313619 6.39039C0.105526 6.82246 -0.00163212 7.29496 1.87898e-05 7.77317V31.6206C-0.00287058 36.2101 1.10753 40.7338 3.23875 44.815C5.36998 48.8963 8.46035 52.417 12.2525 55.084L24.115 63.4066C24.6654 63.7926 25.3243 64 26 64C26.6757 64 27.3346 63.7926 27.885 63.4066L39.7475 55.084C43.5396 52.417 46.63 48.8963 48.7612 44.815C50.8925 40.7338 52.0029 36.2101 52 31.6206V7.77317C52.0016 7.29496 51.8945 6.82246 51.6864 6.39039C51.4783 5.95832 51.1745 5.57766 50.7975 5.27639ZM45.5 31.6206C45.5025 35.189 44.6397 38.7063 42.9834 41.8799C41.327 45.0535 38.9251 47.7916 35.9775 49.8663L26 56.8765L16.0225 49.8663C13.0749 47.7916 10.673 45.0535 9.01665 41.8799C7.36033 38.7063 6.49752 35.189 6.50001 31.6206V11.4543C13.3134 12.0287 20.1371 10.4717 26 7.00493C31.8629 10.4717 38.6866 12.0287 45.5 11.4543V31.6206Z" fill="#407BFF"/>
</svg>
