<svg width="59" height="60" viewBox="0 0 59 60" fill="none" xmlns="http://www.w3.org/2000/svg">
<g id="youtube ">
<path id="Vector" d="M55.7999 24.275C55.9186 20.6966 55.1673 17.145 53.6159 13.95C52.5633 12.639 51.1024 11.7543 49.4879 11.45C42.8099 10.8188 36.1044 10.5601 29.3999 10.675C22.7199 10.5549 16.0384 10.8052 9.38391 11.425C8.06828 11.6743 6.85076 12.3171 5.87992 13.275C3.71992 15.35 3.47992 18.9 3.23992 21.9C2.89171 27.2939 2.89171 32.7061 3.23992 38.1C3.30935 39.7885 3.5507 41.4646 3.95992 43.1C4.2493 44.3627 4.83477 45.5309 5.66392 46.5C6.64136 47.5086 7.88724 48.188 9.23991 48.45C14.4141 49.1153 19.6276 49.391 24.8399 49.275C33.2399 49.4 40.6079 49.275 49.3199 48.575C50.7058 48.3291 51.9867 47.6489 52.9919 46.625C53.6638 45.9248 54.1657 45.0677 54.4559 44.125C55.3142 41.3815 55.7358 38.5103 55.7039 35.625C55.7999 34.225 55.7999 25.775 55.7999 24.275ZM23.9759 37.125V21.65L38.1839 29.425C34.1999 31.725 28.9439 34.325 23.9759 37.125Z" fill="#4A71FB"/>
</g>
</svg>
